<svg width="24" height="24" viewBox="0 0 24 24" fill="none" xmlns="http://www.w3.org/2000/svg">
<path d="M13 7C13 6.44772 12.5523 6 12 6C11.4477 6 11 6.44772 11 7H13ZM12 17L11.2929 17.7071C11.6834 18.0976 12.3166 18.0976 12.7071 17.7071L12 17ZM16.7071 13.7071C17.0976 13.3166 17.0976 12.6834 16.7071 12.2929C16.3166 11.9024 15.6834 11.9024 15.2929 12.2929L16.7071 13.7071ZM8.70711 12.2929C8.31658 11.9024 7.68342 11.9024 7.29289 12.2929C6.90237 12.6834 6.90237 13.3166 7.29289 13.7071L8.70711 12.2929ZM11 7V17H13V7H11ZM15.2929 12.2929L11.2929 16.2929L12.7071 17.7071L16.7071 13.7071L15.2929 12.2929ZM12.7071 16.2929L8.70711 12.2929L7.29289 13.7071L11.2929 17.7071L12.7071 16.2929Z" fill="white"/>
</svg>
