<svg width="44" height="44" viewBox="0 0 44 44" fill="none" xmlns="http://www.w3.org/2000/svg">
<rect width="44" height="44" rx="16" fill="#E31E24"/>
<path d="M29 17H28V16C28 15.2044 27.6839 14.4413 27.1213 13.8787C26.5587 13.3161 25.7956 13 25 13H15C14.2044 13 13.4413 13.3161 12.8787 13.8787C12.3161 14.4413 12 15.2044 12 16V28C12 28.7956 12.3161 29.5587 12.8787 30.1213C13.4413 30.6839 14.2044 31 15 31H29C29.7956 31 30.5587 30.6839 31.1213 30.1213C31.6839 29.5587 32 28.7956 32 28V20C32 19.2044 31.6839 18.4413 31.1213 17.8787C30.5587 17.3161 29.7956 17 29 17ZM15 15H25C25.2652 15 25.5196 15.1054 25.7071 15.2929C25.8946 15.4804 26 15.7348 26 16V17H15C14.7348 17 14.4804 16.8946 14.2929 16.7071C14.1054 16.5196 14 16.2652 14 16C14 15.7348 14.1054 15.4804 14.2929 15.2929C14.4804 15.1054 14.7348 15 15 15ZM30 25H29C28.7348 25 28.4804 24.8946 28.2929 24.7071C28.1054 24.5196 28 24.2652 28 24C28 23.7348 28.1054 23.4804 28.2929 23.2929C28.4804 23.1054 28.7348 23 29 23H30V25ZM30 21H29C28.2044 21 27.4413 21.3161 26.8787 21.8787C26.3161 22.4413 26 23.2044 26 24C26 24.7956 26.3161 25.5587 26.8787 26.1213C27.4413 26.6839 28.2044 27 29 27H30V28C30 28.2652 29.8946 28.5196 29.7071 28.7071C29.5196 28.8946 29.2652 29 29 29H15C14.7348 29 14.4804 28.8946 14.2929 28.7071C14.1054 28.5196 14 28.2652 14 28V18.83C14.3213 18.943 14.6594 19.0005 15 19H29C29.2652 19 29.5196 19.1054 29.7071 19.2929C29.8946 19.4804 30 19.7348 30 20V21Z" fill="white"/>
</svg>
