<svg width="151" height="44" viewBox="0 0 151 44" fill="none" xmlns="http://www.w3.org/2000/svg">
<rect width="151" height="44" rx="8" fill="#E3000F"/>
<path d="M113.704 8.00537H127.995V12.3991H118.444V19.8261H126.076V21.635C126.076 22.411 125.815 23.0358 125.309 23.5094C124.798 23.9831 124.119 24.2199 123.282 24.2199H118.449V31.6066H128V36.0003H113.709V8.00537H113.704Z" fill="#131419"/>
<path d="M44.6567 8.05039V29.9838C44.6567 30.4826 44.8197 30.8706 45.1296 31.1629C45.4449 31.4551 45.8634 31.6012 46.4016 31.6012H47.9399C48.4781 31.6012 48.9075 31.4501 49.2174 31.1629C49.5327 30.8706 49.6849 30.4826 49.6849 29.9838V8.05039H54.425V31.1528C54.425 32.619 53.9521 33.788 52.9899 34.6799C52.0386 35.5616 50.772 36 49.1848 36H45.1459C43.5586 36 42.292 35.5616 41.3407 34.6799C40.384 33.7931 39.9057 32.619 39.9057 31.1528V8.05039H44.6567ZM57.219 36V8.00504H59.3499C60.187 8.00504 60.9372 8.22674 61.6004 8.67015C62.2636 9.10851 62.7256 9.70812 62.9865 10.4639L67.4983 24.1037L67.3244 8H72.0808V35.995H69.9499C69.1128 35.995 68.3572 35.7733 67.694 35.3299C67.0308 34.8915 66.5742 34.2919 66.3187 33.5361L61.8124 19.8963L61.9863 36H57.219ZM73.3909 8.04535H88.2689V12.4391H83.2027V36H78.4626V12.4391H73.3963V8.04535H73.3909ZM23 8.00504H27.7401V19.8258H32.5618V8.00504H37.3019V36H32.5618V24.2195H27.7401V36H23V8.00504Z" fill="white"/>
<path d="M100.788 36.0003H99.1516C98.5156 33.1484 95.0367 34.0453 95.0856 30.745C95.1128 28.7749 96.8849 27.9183 97.2165 25.9431C97.6078 23.6001 96.7925 21.756 95.5368 20.7533C96.4935 21.8164 97.0697 24.1393 95.7977 26.19C94.9116 27.616 93.6233 28.0442 93.0145 30.4225C92.4111 32.7705 93.7049 34.7155 94.6344 36.0003H90.0574V8.00537H94.9877C95.8249 8.00537 96.5424 8.23715 97.1186 8.70071C97.7003 9.16931 98.0481 9.78907 98.1677 10.565L100.788 27.9636L103.408 10.565C103.528 9.78907 103.875 9.16427 104.457 8.70071C105.039 8.24219 105.751 8.00537 106.588 8.00537H111.518V36.0003H106.941C107.871 34.7155 109.165 32.7705 108.561 30.4225C107.952 28.0442 106.664 27.616 105.778 26.19C104.506 24.1393 105.082 21.8164 106.039 20.7533C104.783 21.756 103.968 23.6001 104.359 25.9431C104.691 27.9183 106.463 28.7749 106.49 30.745C106.539 34.0453 103.06 33.1484 102.424 36.0003H100.788Z" fill="#131419"/>
</svg>
