<svg width="44" height="44" viewBox="0 0 44 44" fill="none" xmlns="http://www.w3.org/2000/svg">
<rect width="44" height="44" rx="16" fill="#E31E24"/>
<path d="M15.0918 29.782L15.5458 28.891H15.5458L15.0918 29.782ZM14.218 28.908L13.327 29.362H13.327L14.218 28.908ZM29.7822 28.908L28.8912 28.454L29.7822 28.908ZM28.9078 29.782L28.4538 28.891L28.9078 29.782ZM28.9078 14.218L29.3618 13.327V13.327L28.9078 14.218ZM29.7822 15.092L28.8912 15.546L29.7822 15.092ZM15.0918 14.218L15.5458 15.109L15.0918 14.218ZM14.218 15.092L15.109 15.546L14.218 15.092ZM26 26V25C25.4477 25 25 25.4477 25 26H26ZM26.002 26L27.0017 26.0234C27.008 25.7542 26.9055 25.4938 26.7173 25.3012C26.5292 25.1086 26.2713 25 26.002 25V26ZM26.002 26.002L25.978 27.0017C26.2433 27.0081 26.5002 26.9087 26.6921 26.7256C26.8841 26.5425 26.9955 26.2906 27.0017 26.0254L26.002 26.002ZM26 26.002H25C25 26.5449 25.4333 26.9887 25.9761 27.0017L26 26.002ZM22 26V25C21.4477 25 21 25.4477 21 26H22ZM22.002 26L23.0017 26.0234C23.008 25.7542 22.9055 25.4938 22.7173 25.3012C22.5292 25.1086 22.2713 25 22.002 25V26ZM22.002 26.002L21.978 27.0017C22.2433 27.0081 22.5002 26.9087 22.6921 26.7256C22.8841 26.5425 22.9955 26.2906 23.0017 26.0254L22.002 26.002ZM22 26.002H21C21 26.5449 21.4333 26.9887 21.9761 27.0017L22 26.002ZM18 26V25C17.4477 25 17 25.4477 17 26H18ZM18.002 26L19.0017 26.0234C19.008 25.7542 18.9055 25.4938 18.7173 25.3012C18.5292 25.1086 18.2713 25 18.002 25V26ZM18.002 26.002L17.978 27.0017C18.2433 27.0081 18.5002 26.9087 18.6921 26.7256C18.8841 26.5425 18.9955 26.2906 19.0017 26.0254L18.002 26.002ZM18 26.002H17C17 26.5449 17.4333 26.9887 17.9761 27.0017L18 26.002ZM26.002 22H27.002C27.002 21.4477 26.5542 21 26.002 21V22ZM26.002 22.002L25.978 23.0017C26.2473 23.0082 26.5078 22.9057 26.7006 22.7175C26.8933 22.5293 27.002 22.2714 27.002 22.002H26.002ZM26 22.002H25C25 22.5449 25.4333 22.9887 25.9761 23.0017L26 22.002ZM26 22V21C25.4477 21 25 21.4477 25 22H26ZM22 22V21C21.4477 21 21 21.4477 21 22H22ZM22.002 22L23.0017 22.0234C23.008 21.7542 22.9055 21.4938 22.7173 21.3012C22.5292 21.1086 22.2713 21 22.002 21V22ZM22.002 22.002L21.978 23.0017C22.2433 23.0081 22.5002 22.9087 22.6921 22.7256C22.8841 22.5425 22.9955 22.2906 23.0017 22.0254L22.002 22.002ZM22 22.002H21C21 22.5449 21.4333 22.9887 21.9761 23.0017L22 22.002ZM18 22V21C17.4477 21 17 21.4477 17 22H18ZM18.002 22L19.0017 22.0234C19.008 21.7542 18.9055 21.4938 18.7173 21.3012C18.5292 21.1086 18.2713 21 18.002 21V22ZM18.002 22.002L17.978 23.0017C18.2433 23.0081 18.5002 22.9087 18.6921 22.7256C18.8841 22.5425 18.9955 22.2906 19.0017 22.0254L18.002 22.002ZM18 22.002H17C17 22.5449 17.4333 22.9887 17.9761 23.0017L18 22.002ZM14 17C13.4477 17 13 17.4477 13 18C13 18.5523 13.4477 19 14 19V17ZM30 19C30.5523 19 31 18.5523 31 18C31 17.4477 30.5523 17 30 17V19ZM27 12C27 11.4477 26.5523 11 26 11C25.4477 11 25 11.4477 25 12H27ZM25 14C25 14.5523 25.4477 15 26 15C26.5523 15 27 14.5523 27 14H25ZM19 12C19 11.4477 18.5523 11 18 11C17.4477 11 17 11.4477 17 12H19ZM17 14C17 14.5523 17.4477 15 18 15C18.5523 15 19 14.5523 19 14H17ZM17.2002 15H26.8002V13H17.2002V15ZM29 17.2V26.8H31V17.2H29ZM26.8002 29H17.2002V31H26.8002V29ZM15 26.8V17.2H13V26.8H15ZM17.2002 29C16.6237 29 16.2513 28.9992 15.9678 28.9761C15.696 28.9538 15.5952 28.9161 15.5458 28.891L14.6378 30.673C15.0162 30.8658 15.4096 30.9371 15.805 30.9694C16.1887 31.0008 16.6566 31 17.2002 31V29ZM13 26.8C13 27.3435 12.9992 27.8113 13.0306 28.195C13.0629 28.5904 13.1342 28.9836 13.327 29.362L15.109 28.454C15.0838 28.4046 15.0461 28.3039 15.0239 28.0322C15.0008 27.7488 15 27.3765 15 26.8H13ZM15.5458 28.891C15.3578 28.7952 15.2049 28.6424 15.109 28.454L13.327 29.362C13.6145 29.9264 14.0732 30.3853 14.6378 30.673L15.5458 28.891ZM29 26.8C29 27.3766 28.9993 27.7489 28.9762 28.0323C28.954 28.3041 28.9163 28.4047 28.8912 28.454L30.6732 29.362C30.8661 28.9835 30.9373 28.5902 30.9696 28.1949C31.0008 27.8112 31 27.3434 31 26.8H29ZM26.8002 31C27.3438 31 27.8115 31.0008 28.1951 30.9694C28.5904 30.9371 28.9835 30.8657 29.3618 30.673L28.4538 28.891C28.4043 28.9162 28.3036 28.9539 28.0321 28.9761C27.7489 28.9992 27.3767 29 26.8002 29V31ZM28.8912 28.454C28.7956 28.6417 28.6425 28.7948 28.4538 28.891L29.3618 30.673C29.9257 30.3856 30.3853 29.927 30.6732 29.362L28.8912 28.454ZM26.8002 15C27.3768 15 27.7489 15.0008 28.0321 15.0239C28.3036 15.0461 28.4043 15.0838 28.4538 15.109L29.3618 13.327C28.9835 13.1342 28.5904 13.0629 28.1951 13.0306C27.8115 12.9992 27.3437 13 26.8002 13V15ZM31 17.2C31 16.6565 31.0008 16.1887 30.9695 15.8051C30.9373 15.4098 30.8661 15.0165 30.6732 14.6381L28.8912 15.546C28.9164 15.5954 28.954 15.696 28.9762 15.9677C28.9993 16.2511 29 16.6233 29 17.2H31ZM28.4538 15.109C28.6424 15.2051 28.7956 15.3583 28.8912 15.546L30.6732 14.6381C30.3854 14.0732 29.9259 13.6144 29.3618 13.327L28.4538 15.109ZM17.2002 13C16.6566 13 16.1887 12.9992 15.805 13.0306C15.4096 13.0629 15.0162 13.1342 14.6378 13.327L15.5458 15.109C15.5952 15.0838 15.6959 15.0461 15.9678 15.0239C16.2513 15.0008 16.6237 15 17.2002 15V13ZM15 17.2C15 16.6234 15.0008 16.2511 15.0239 15.9678C15.0461 15.6962 15.0838 15.5955 15.109 15.546L13.327 14.6381C13.1342 15.0164 13.0629 15.4096 13.0306 15.805C12.9992 16.1886 13 16.6564 13 17.2H15ZM14.6378 13.327C14.0731 13.6147 13.6145 14.0738 13.327 14.6381L15.109 15.546C15.205 15.3576 15.3579 15.2047 15.5458 15.109L14.6378 13.327ZM26 27H26.002V25H26V27ZM25.0023 25.9766L25.0022 25.9786L27.0017 26.0254L27.0017 26.0234L25.0023 25.9766ZM26.0259 25.0023L26.0239 25.0022L25.9761 27.0017L25.978 27.0017L26.0259 25.0023ZM27 26.002V26H25V26.002H27ZM22 27H22.002V25H22V27ZM21.0023 25.9766L21.0022 25.9786L23.0017 26.0254L23.0017 26.0234L21.0023 25.9766ZM22.0259 25.0023L22.0239 25.0022L21.9761 27.0017L21.978 27.0017L22.0259 25.0023ZM23 26.002V26H21V26.002H23ZM18 27H18.002V25H18V27ZM17.0023 25.9766L17.0022 25.9786L19.0017 26.0254L19.0017 26.0234L17.0023 25.9766ZM18.0259 25.0023L18.0239 25.0022L17.9761 27.0017L17.978 27.0017L18.0259 25.0023ZM19 26.002V26H17V26.002H19ZM25.002 22V22.002H27.002V22H25.002ZM26.0259 21.0023L26.0239 21.0022L25.9761 23.0017L25.978 23.0017L26.0259 21.0023ZM27 22.002V22H25V22.002H27ZM26 23H26.002V21H26V23ZM22 23H22.002V21H22V23ZM21.0023 21.9766L21.0022 21.9786L23.0017 22.0254L23.0017 22.0234L21.0023 21.9766ZM22.0259 21.0023L22.0239 21.0022L21.9761 23.0017L21.978 23.0017L22.0259 21.0023ZM23 22.002V22H21V22.002H23ZM18 23H18.002V21H18V23ZM17.0023 21.9766L17.0022 21.9786L19.0017 22.0254L19.0017 22.0234L17.0023 21.9766ZM18.0259 21.0023L18.0239 21.0022L17.9761 23.0017L17.978 23.0017L18.0259 21.0023ZM19 22.002V22H17V22.002H19ZM14 19H30V17H14V19ZM25 12V14H27V12H25ZM17 12V14H19V12H17Z" fill="white"/>
</svg>
