<svg width="205" height="60" viewBox="0 0 205 60" fill="none" xmlns="http://www.w3.org/2000/svg">
<rect width="205" height="60" rx="8" fill="#E3000F"/>
<path d="M158.168 8.50775H178.992V15.2553H165.075V26.6611H176.196V29.439C176.196 30.6307 175.816 31.5902 175.079 32.3175C174.335 33.0449 173.344 33.4086 172.125 33.4086H165.083V44.7525H179V51.5H158.176V8.50775H158.168Z" fill="#131419"/>
<path d="M57.5568 8.57738V42.2609C57.5568 43.0269 57.7945 43.6227 58.246 44.0715C58.7054 44.5203 59.3153 44.7447 60.0994 44.7447H62.3411C63.1252 44.7447 63.751 44.5126 64.2025 44.0715C64.6619 43.6227 64.8837 43.0269 64.8837 42.2609V8.57738H71.7907V44.0561C71.7907 46.3078 71.1016 48.103 69.6996 49.4727C68.3134 50.8268 66.4678 51.5 64.1549 51.5H58.2697C55.9568 51.5 54.1112 50.8268 52.7251 49.4727C51.331 48.1108 50.634 46.3078 50.634 44.0561V8.57738H57.5568ZM75.862 51.5V8.50773H78.967C80.1868 8.50773 81.2799 8.84821 82.2463 9.52915C83.2126 10.2024 83.8859 11.1232 84.2661 12.2839L90.8404 33.2306L90.587 8.5H97.5178V51.4923H94.4128C93.1929 51.4923 92.0919 51.1518 91.1256 50.4709C90.1592 49.7977 89.4939 48.8768 89.1216 47.7161L82.5552 26.7694L82.8086 51.5H75.862ZM99.4267 8.56964H121.106V15.3172H113.724V51.5H106.817V15.3172H99.4346V8.56964H99.4267ZM26 8.50773H32.907V26.6611H39.9329V8.50773H46.8399V51.5H39.9329V33.4086H32.907V51.5H26V8.50773Z" fill="white"/>
<path d="M139.348 51.5H136.964C136.037 47.1203 130.968 48.4977 131.039 43.4293C131.079 40.4037 133.661 39.0883 134.144 36.055C134.714 32.4568 133.526 29.6247 131.696 28.0849C133.09 29.7176 133.93 33.2848 132.077 36.4342C130.786 38.624 128.908 39.2817 128.021 42.9341C127.142 46.54 129.027 49.5268 130.382 51.5H123.712V8.50775H130.896C132.116 8.50775 133.162 8.8637 134.001 9.5756C134.849 10.2952 135.356 11.247 135.53 12.4387L139.348 39.1579L143.166 12.4387C143.34 11.247 143.847 10.2875 144.695 9.5756C145.542 8.87144 146.58 8.50775 147.8 8.50775H154.984V51.5H148.314C149.669 49.5268 151.554 46.54 150.675 42.9341C149.788 39.2817 147.91 38.624 146.619 36.4342C144.766 33.2848 145.606 29.7176 147 28.0849C145.17 29.6247 143.982 32.4568 144.552 36.055C145.035 39.0883 147.617 40.4037 147.657 43.4293C147.728 48.4977 142.659 47.1203 141.732 51.5H139.348Z" fill="#131419"/>
</svg>
