<svg width="1440" height="576" viewBox="0 0 1440 576" fill="none" xmlns="http://www.w3.org/2000/svg">
<g opacity="0.1">
<path d="M-3.12402 -14.7405C51.689 17.5806 100.221 59.5265 140.138 109.081C234.143 226.849 221.328 320.245 275.268 334.856C358.618 357.426 412.44 140.603 587.681 106.34C716.212 81.1926 846.998 166.635 877.269 186.432C995.369 263.571 1011.03 349.038 1095.7 351.31C1157.65 353.038 1175.94 308.063 1272.81 289.012C1340.24 275.752 1399.27 284.177 1439.05 293.538" stroke="#98A2AE" stroke-width="2" stroke-miterlimit="10"/>
<path d="M-3.06934 -4.52722C51.7487 27.8046 100.287 69.7564 140.217 119.315C234.223 237.104 221.406 330.479 275.324 345.091C358.697 367.659 412.518 150.836 587.738 116.575C716.291 91.4477 847.077 176.89 877.348 196.665C995.447 273.805 1011.08 359.273 1095.78 361.544C1157.73 363.272 1176 318.298 1272.89 299.246C1340.34 285.984 1399.34 294.41 1439.13 303.771" stroke="#98A2AE" stroke-width="2" stroke-miterlimit="10"/>
<path d="M-3.01465 5.68591C51.8084 38.0107 100.348 79.9636 140.271 129.528C234.278 247.317 221.461 340.692 275.4 355.303C358.686 377.877 412.595 161.048 587.814 126.786C716.346 101.661 847.132 187.104 877.402 206.878C995.503 284.04 1011.16 369.484 1095.84 371.757C1157.78 373.485 1176.07 328.487 1272.94 309.437C1340.39 296.175 1399.4 304.601 1439.18 313.962" stroke="#98A2AE" stroke-width="2" stroke-miterlimit="10"/>
<path d="M-2.91797 15.8959C51.8949 48.2366 100.427 90.1965 140.348 139.761C234.354 257.551 221.537 350.925 275.455 365.538C358.828 388.106 412.65 171.283 587.869 137.021C716.423 111.894 847.209 197.337 877.479 217.112C995.58 294.273 1011.21 379.72 1095.91 381.99C1157.86 383.718 1176.13 338.723 1273.01 319.67C1340.47 306.409 1399.47 314.835 1439.26 324.196" stroke="#98A2AE" stroke-width="2" stroke-miterlimit="10"/>
<path d="M-2.88574 26.1106C51.9323 58.4424 100.471 100.394 140.4 149.952C234.429 267.74 221.591 361.138 275.529 375.728C358.88 398.297 412.724 181.472 587.943 147.211C716.497 122.084 847.261 207.528 877.553 227.301C995.632 304.464 1011.29 389.909 1095.97 392.181C1157.91 393.91 1176.2 348.912 1273.07 329.862C1340.52 316.6 1399.53 325.048 1439.31 334.387" stroke="#98A2AE" stroke-width="2" stroke-miterlimit="10"/>
<path d="M-2.80859 36.3221C52.005 68.6602 100.543 110.611 140.477 160.164C234.484 277.954 221.668 371.35 275.585 385.941C358.892 408.514 412.779 191.686 588.013 157.335C716.545 132.21 847.331 217.653 877.602 237.427C995.703 314.589 1011.34 400.035 1096.04 402.306C1157.98 404.034 1176.25 359.038 1273.14 339.986C1340.59 326.724 1399.6 335.172 1439.4 344.51" stroke="#98A2AE" stroke-width="2" stroke-miterlimit="10"/>
<path d="M-2.71094 46.5536C52.1017 78.8963 100.628 120.865 140.535 170.442C234.563 288.23 221.726 381.628 275.664 396.218C359.016 418.809 412.86 201.984 588.079 167.723C716.631 142.574 847.396 228.018 877.688 247.791C995.767 324.954 1011.42 410.399 1096.1 412.672C1158.04 414.4 1176.34 369.402 1273.2 350.352C1340.66 337.112 1399.66 345.538 1439.44 354.877" stroke="#98A2AE" stroke-width="2" stroke-miterlimit="10"/>
<path d="M-2.68457 56.6791C52.1385 89.0038 100.678 130.957 140.601 180.521C234.606 298.289 221.791 391.685 275.709 406.298C359.081 428.865 412.903 212.043 588.144 177.779C716.674 152.632 847.461 238.075 877.732 257.871C995.832 335.011 1011.47 420.458 1096.17 422.75C1158.11 424.478 1176.4 379.481 1273.27 360.452C1340.7 347.192 1399.71 355.618 1439.51 364.977" stroke="#98A2AE" stroke-width="2" stroke-miterlimit="10"/>
<path d="M-2.625 66.9774C52.2004 99.307 100.746 141.258 140.683 190.818C234.688 308.585 221.85 401.983 275.79 416.594C359.097 439.167 412.985 222.339 588.199 188.012C716.751 162.864 847.515 248.308 877.809 268.103C995.886 345.244 1011.54 430.711 1096.22 432.983C1158.16 434.711 1176.46 389.735 1273.32 370.685C1340.78 357.423 1399.78 365.849 1439.57 375.21" stroke="#98A2AE" stroke-width="2" stroke-miterlimit="10"/>
<path d="M-2.50488 77.1857C52.3076 109.548 100.834 151.531 140.744 201.118C234.751 318.908 221.934 412.282 275.873 426.893C359.224 449.463 413.046 232.64 588.287 198.376C716.817 173.229 847.603 258.672 877.875 278.469C995.975 355.608 1011.61 441.077 1096.31 443.347C1158.25 445.075 1176.55 400.099 1273.41 381.049C1340.85 367.789 1399.85 376.215 1439.65 385.575" stroke="#98A2AE" stroke-width="2" stroke-miterlimit="10"/>
<path d="M-2.47559 87.3583C52.338 119.696 100.876 161.647 140.81 211.2C234.817 328.99 222 422.364 275.918 436.977C359.269 459.546 413.112 242.722 588.331 208.46C716.885 183.333 847.649 268.778 877.941 288.551C996.019 365.692 1011.68 451.159 1096.38 453.429C1158.3 455.159 1176.59 410.183 1273.48 391.131C1340.94 377.869 1399.94 386.296 1439.72 395.657" stroke="#98A2AE" stroke-width="2" stroke-miterlimit="10"/>
<path d="M-2.41992 97.6141C52.3981 129.946 100.937 171.898 140.866 221.456C234.873 339.246 222.055 432.62 275.995 447.231C359.346 469.8 413.168 252.978 588.409 218.714C716.941 193.589 847.727 279.032 877.997 298.806C996.098 375.968 1011.73 461.414 1096.43 463.685C1158.38 465.413 1176.67 420.416 1273.53 401.365C1340.97 388.105 1399.97 396.531 1439.77 405.891" stroke="#98A2AE" stroke-width="2" stroke-miterlimit="10"/>
<path d="M-2.29883 107.822C52.5103 140.166 101.047 182.116 140.987 231.664C234.994 349.454 222.176 442.828 276.094 457.441C359.4 479.992 413.282 263.099 588.464 228.927C717.018 203.801 847.783 289.245 878.075 309.018C996.154 386.181 1011.81 471.626 1096.51 473.896C1158.43 475.626 1176.72 430.629 1273.61 411.577C1341.07 398.315 1400.07 406.763 1439.85 416.102" stroke="#98A2AE" stroke-width="2" stroke-miterlimit="10"/>
<path d="M-2.28906 118.039C52.529 150.371 101.068 192.322 140.997 241.881C235.003 359.67 222.188 453.067 276.126 467.656C359.477 490.225 413.299 273.402 588.54 239.139C717.072 214.014 847.858 299.456 878.106 319.233C996.207 396.394 1011.84 481.841 1096.54 484.111C1158.48 485.84 1176.78 440.842 1273.64 421.792C1341.08 408.532 1400.08 416.98 1439.88 426.317" stroke="#98A2AE" stroke-width="2" stroke-miterlimit="10"/>
<path d="M-2.21289 128.25C52.6007 160.588 101.138 202.539 141.073 252.092C235.08 369.882 222.264 463.278 276.18 477.869C359.509 500.44 413.375 283.614 588.596 249.374C717.15 224.247 847.914 309.692 878.206 329.464C996.285 406.628 1011.94 492.072 1096.64 494.343C1158.56 496.073 1176.85 451.075 1273.74 432.023C1341.2 418.783 1400.2 427.209 1439.98 436.549" stroke="#98A2AE" stroke-width="2" stroke-miterlimit="10"/>
<path d="M-2.09082 138.48C52.7365 170.799 101.277 212.752 141.195 262.322C235.2 380.09 222.384 473.486 276.323 488.075C359.61 510.671 413.492 293.778 588.673 259.585C717.203 234.438 847.989 319.881 878.259 339.656C996.36 416.817 1012 502.263 1096.69 504.534C1158.64 506.262 1176.93 461.265 1273.8 442.214C1341.23 428.976 1400.23 437.402 1440.04 446.74" stroke="#98A2AE" stroke-width="2" stroke-miterlimit="10"/>
<path d="M-2.0791 148.718C52.744 181.042 101.284 222.995 141.207 272.56C235.212 390.327 222.396 483.724 276.314 498.336C359.665 520.906 413.509 304.081 588.728 269.82C717.28 244.671 848.044 330.115 878.338 349.91C996.415 427.051 1012.07 512.518 1096.77 514.789C1158.72 516.517 1176.99 471.543 1273.88 452.491C1341.33 439.229 1400.33 447.655 1440.12 457.016" stroke="#98A2AE" stroke-width="2" stroke-miterlimit="10"/>
<path d="M-2.02734 158.91C52.7957 191.235 101.336 233.187 141.259 282.752C235.263 400.52 222.448 493.916 276.388 508.527C359.717 531.098 413.56 314.273 588.805 280.054C717.335 254.907 848.121 340.349 878.393 360.146C996.492 437.285 1012.13 522.754 1096.83 525.024C1158.77 526.752 1177.07 481.777 1273.93 462.726C1341.37 449.466 1400.37 457.892 1440.17 467.252" stroke="#98A2AE" stroke-width="2" stroke-miterlimit="10"/>
<path d="M-1.88574 169.116C52.9323 201.448 101.471 243.4 141.4 292.958C235.407 410.748 222.59 504.122 276.508 518.735C359.796 541.353 413.7 324.458 588.856 290.223C717.41 265.096 848.196 350.539 878.466 370.314C996.543 447.455 1012.2 532.922 1096.9 535.192C1158.84 536.921 1177.12 491.946 1274 472.894C1341.46 459.633 1400.46 468.059 1440.24 477.42" stroke="#98A2AE" stroke-width="2" stroke-miterlimit="10"/>
<path d="M-1.8916 179.398C52.9315 211.723 101.471 253.676 141.394 303.24C235.401 421.03 222.584 514.404 276.524 529.015C359.874 551.585 413.696 334.762 588.937 300.499C717.464 275.308 848.25 360.751 878.52 380.525C996.621 457.687 1012.26 543.133 1096.96 545.404C1158.9 547.132 1177.19 502.134 1274.06 483.084C1341.49 469.824 1400.49 478.25 1440.3 487.609" stroke="#98A2AE" stroke-width="2" stroke-miterlimit="10"/>
<path d="M-1.82129 189.546C52.9968 221.878 101.535 263.83 141.465 313.388C235.471 431.178 222.654 524.552 276.572 539.165C359.923 561.734 413.766 344.91 588.992 310.735C717.546 285.608 848.332 371.051 878.603 390.826C996.682 467.989 1012.34 553.433 1097.04 555.704C1158.98 557.432 1177.25 512.436 1274.14 493.384C1341.59 480.122 1400.6 488.549 1440.38 497.91" stroke="#98A2AE" stroke-width="2" stroke-miterlimit="10"/>
<path d="M-1.67969 199.752C53.1384 232.084 101.677 274.036 141.606 323.594C235.613 441.384 222.797 534.78 276.735 549.369C360.006 572.033 413.91 355.138 589.062 320.859C717.594 295.734 848.38 381.177 878.65 400.952C996.751 478.113 1012.39 563.559 1097.09 565.83C1159.03 567.558 1177.32 522.561 1274.19 503.51C1341.62 490.25 1400.65 498.696 1440.43 508.036" stroke="#98A2AE" stroke-width="2" stroke-miterlimit="10"/>
<path d="M-1.68164 210.078C53.1319 242.416 101.67 284.367 141.604 333.919C235.611 451.709 222.795 545.105 276.712 559.696C360.062 582.266 413.906 365.441 589.125 331.179C717.671 305.944 848.457 391.386 878.727 411.161C996.828 488.322 1012.46 573.769 1097.16 576.039C1159.1 577.768 1177.38 532.772 1274.26 513.72C1341.72 500.458 1400.72 508.906 1440.5 518.245" stroke="#98A2AE" stroke-width="2" stroke-miterlimit="10"/>
<path d="M-1.63477 220.205C53.1859 252.524 101.725 294.469 141.649 344.025C235.656 461.815 222.84 555.211 276.779 569.8C360.131 592.392 413.953 375.569 589.192 341.284C717.724 316.158 848.51 401.601 878.781 421.376C996.881 498.537 1012.54 583.982 1097.22 586.254C1159.16 587.983 1177.45 542.985 1274.32 523.935C1341.75 510.696 1400.78 519.121 1440.56 528.46" stroke="#98A2AE" stroke-width="2" stroke-miterlimit="10"/>
<path d="M-1.47266 230.406C53.3504 262.731 101.89 304.684 141.813 354.248C235.818 472.016 223.003 565.412 276.921 580.025C360.215 602.708 414.119 385.813 589.247 351.515C717.799 326.366 848.585 411.809 878.857 431.605C996.956 508.745 1012.59 594.191 1097.29 596.484C1159.24 598.212 1177.51 553.216 1274.4 534.186C1341.85 520.924 1400.85 529.35 1440.64 538.711" stroke="#98A2AE" stroke-width="2" stroke-miterlimit="10"/>
<path d="M-1.50488 240.626C53.3182 272.951 101.858 314.904 141.781 364.468C235.786 482.236 222.97 575.632 276.91 590.243C360.261 612.812 414.105 395.988 589.324 361.726C717.854 336.579 848.635 421.957 878.934 441.817C997.011 518.958 1012.67 604.425 1097.35 606.697C1159.29 608.425 1177.58 563.449 1274.45 544.399C1341.91 531.137 1400.91 539.563 1440.69 548.924" stroke="#98A2AE" stroke-width="2" stroke-miterlimit="10"/>
<path d="M-1.42871 250.838C53.3893 283.17 101.928 325.121 141.857 374.68C235.864 492.469 223.047 585.844 276.965 600.456C360.337 623.024 414.159 406.201 589.378 371.94C717.93 346.791 848.716 432.234 878.988 452.03C997.087 529.17 1012.72 614.638 1097.42 616.909C1159.37 618.637 1177.64 573.663 1274.53 554.611C1341.98 541.349 1400.99 549.775 1440.77 559.136" stroke="#98A2AE" stroke-width="2" stroke-miterlimit="10"/>
</g>
</svg>
