<svg width="61" height="62" viewBox="0 0 61 62" fill="none" xmlns="http://www.w3.org/2000/svg">
<g clip-path="url(#clip0_66_5300)">
<path d="M46.5611 10.4788L32.9926 6.84315L24.9962 11.4599L38.5649 15.0956L46.5611 10.4788Z" fill="#E31E24" stroke="#131419" stroke-width="1.1366" stroke-linejoin="round"/>
<path d="M52.2988 40.2824L55.9345 26.7139L47.9381 31.3304L44.3025 44.8989L52.2988 40.2824Z" fill="#131419" stroke="#131419" stroke-width="1.1366" stroke-linejoin="round"/>
<path d="M55.9343 26.7137L43.1302 23.2829L35.1339 27.8994L47.938 31.3303L55.9343 26.7137Z" fill="#E31E24" stroke="#131419" stroke-width="1.1366" stroke-linejoin="round"/>
<path d="M43.1303 23.2829L46.5612 10.4788L38.5648 15.0955L35.134 27.8994L43.1303 23.2829Z" fill="#131419" stroke="#131419" stroke-width="1.1366" stroke-linejoin="round"/>
<path d="M23.2555 17.9573L16.758 16.2163L8.76158 20.833L21.5657 24.2639L23.2555 17.9573Z" fill="#E31E24" stroke="#131419" stroke-width="1.1366" stroke-linejoin="round"/>
<path d="M36.0637 49.6553L37.8047 43.1578L31.4744 41.4615L28.0674 54.272L36.0637 49.6553Z" fill="#131419" stroke="#131419" stroke-width="1.1366" stroke-linejoin="round"/>
<path d="M38.5648 15.0957L24.9963 11.46L21.5655 24.2639L8.76158 20.8331L5.12591 34.4016L17.9298 37.8324L14.499 50.6365L28.0675 54.2722L31.4745 41.4617L44.3025 44.8989L47.9381 31.3304L35.134 27.8996L38.5648 15.0957Z" fill="white" stroke="#131419" stroke-width="1.1366" stroke-linejoin="round"/>
</g>
<defs>
<clipPath id="clip0_66_5300">
<rect width="49.6881" height="49.6881" fill="white" transform="translate(12.8604 0.512573) rotate(15)"/>
</clipPath>
</defs>
</svg>
