<svg width="111" height="111" viewBox="0 0 111 111" fill="none" xmlns="http://www.w3.org/2000/svg">
<g clip-path="url(#clip0_66_5292)">
<path d="M61.8521 8.40074L37.2905 14.982L28.9334 29.4569L53.4953 22.8756L61.8521 8.40074Z" fill="#E31E24" stroke="#131419" stroke-width="1.1366" stroke-linejoin="round"/>
<path d="M97.8217 49.9297L91.2405 25.3682L82.8833 39.8429L89.4645 64.4044L97.8217 49.9297Z" fill="#131419" stroke="#131419" stroke-width="1.1366" stroke-linejoin="round"/>
<path d="M91.2404 25.3681L68.0626 31.5786L59.7054 46.0532L82.8832 39.8427L91.2404 25.3681Z" fill="#E31E24" stroke="#131419" stroke-width="1.1366" stroke-linejoin="round"/>
<path d="M68.0625 31.5786L61.8521 8.4008L53.4949 22.8757L59.7054 46.0533L68.0625 31.5786Z" fill="#131419" stroke="#131419" stroke-width="1.1366" stroke-linejoin="round"/>
<path d="M32.0853 41.2185L20.3235 44.37L11.9664 58.845L35.1442 52.6345L32.0853 41.2185Z" fill="#E31E24" stroke="#131419" stroke-width="1.1366" stroke-linejoin="round"/>
<path d="M80.8541 79.3177L77.7026 67.5559L66.2434 70.6263L72.497 93.7926L80.8541 79.3177Z" fill="#131419" stroke="#131419" stroke-width="1.1366" stroke-linejoin="round"/>
<path d="M53.4952 22.8757L28.9336 29.457L35.144 52.6345L11.9665 58.8449L18.5478 83.4064L41.7253 77.196L47.9358 100.374L72.4973 93.7926L66.2437 70.6263L89.4647 64.4043L82.8834 39.8428L59.7056 46.0533L53.4952 22.8757Z" fill="white" stroke="#131419" stroke-width="1.1366" stroke-linejoin="round"/>
</g>
<defs>
<clipPath id="clip0_66_5292">
<rect width="89.9447" height="89.9447" fill="white" transform="translate(0 23.2794) rotate(-15)"/>
</clipPath>
</defs>
</svg>
