<svg width="139" height="137" viewBox="0 0 139 137" fill="none" xmlns="http://www.w3.org/2000/svg">
<g clip-path="url(#clip0_66_5580)">
<path d="M116.118 58.982C120.268 52.4745 122.398 47.5505 122.398 47.5505C122.398 47.5505 92.6291 25.4331 65.1879 32.786C37.7471 40.1387 23.0252 74.1773 23.0252 74.1773L23.0858 74.2219C29.8458 63.6207 41.9661 48.8183 58.9695 44.2623C85.6916 37.1021 114.621 57.888 116.118 58.982Z" fill="#E31E24" stroke="#131419" stroke-width="1.1366" stroke-linejoin="round"/>
<path fill-rule="evenodd" clip-rule="evenodd" d="M74.016 100.418C101.457 93.0649 116.179 59.0267 116.179 59.0267C116.179 59.0267 86.4101 36.9097 58.9693 44.2624C31.5281 51.6153 16.8061 85.6535 16.8061 85.6535C16.8061 85.6535 46.5748 107.771 74.016 100.418ZM71.5451 91.1959C81.9591 88.4055 88.139 77.7017 85.3486 67.2876C82.5581 56.8736 71.8542 50.6934 61.4402 53.4838C51.0261 56.2742 44.846 66.9786 47.6364 77.3926C50.4268 87.8066 61.1311 93.9864 71.5451 91.1959Z" fill="white" stroke="#131419" stroke-width="1.1366" stroke-linejoin="round"/>
<path d="M73.8456 90.4256C64.2267 91.7686 54.8924 85.7611 52.3142 76.139C49.7359 66.5169 54.8159 56.6471 63.8176 53.0008C63.016 53.1128 62.222 53.274 61.4402 53.4836C51.0262 56.274 44.8461 66.9784 47.6365 77.3924C50.4269 87.8064 61.1312 93.9862 71.5452 91.1957C72.327 90.9865 73.0953 90.7293 73.8456 90.4256Z" fill="#131419" stroke="#131419" stroke-width="1.1366" stroke-linejoin="round"/>
<path d="M75.8494 65.2167C75.1856 66.331 74.1125 67.1417 72.8592 67.4758C70.1987 68.1887 67.4638 66.6097 66.7509 63.9492C66.5122 63.0585 66.5306 62.1597 66.7604 61.3309C66.1022 61.3823 65.4501 61.4944 64.8125 61.6657C59.1116 63.1933 55.7284 69.0533 57.2559 74.7542C58.7835 80.4554 64.6436 83.8387 70.3444 82.3111C76.0457 80.7835 79.429 74.9235 77.9013 69.2222C77.4954 67.7072 76.7834 66.3557 75.8494 65.2167Z" fill="#E31E24" stroke="#131419" stroke-width="1.1366" stroke-linejoin="round"/>
</g>
<defs>
<clipPath id="clip0_66_5580">
<rect width="113.66" height="113.66" fill="white" transform="translate(0 26.4172) rotate(-15)"/>
</clipPath>
</defs>
</svg>
