<svg width="1440" height="444" viewBox="0 0 1440 444" fill="none" xmlns="http://www.w3.org/2000/svg">
<g opacity="0.1">
<path d="M-35.1406 586.707C274.635 435.086 380.345 267.877 418.656 141.028C461.408 -0.540631 439.36 -155.269 485.511 -164.878C515.062 -171.033 551.424 -113.256 619.216 13.3992C824.796 397.464 829.451 499.457 917.038 525.929C1039.74 563.039 1115.37 388.455 1303.97 392.219C1442.5 394.989 1554.59 492.194 1630.14 578.599" stroke="#98A2AE" stroke-width="2" stroke-miterlimit="10"/>
<path d="M-42.5791 571.465C258.474 423.109 370.256 260.577 411.605 141.693C457.811 8.83709 435.99 -137.899 481.66 -144.839C511.022 -149.304 546.701 -92.5144 612.184 29.8C811.193 401.458 817.367 504.721 904.28 529.886C1027.69 565.116 1100.03 377.904 1290.63 375.356C1294.79 375.3 1298.88 375.3 1302.97 375.411C1438.21 379.174 1551.9 476.426 1629.06 562.3" stroke="#98A2AE" stroke-width="2" stroke-miterlimit="10"/>
<path d="M-49.9939 556.223C242.314 411.145 360.08 253.568 404.574 142.367C454.164 18.4182 432.652 -120.51 477.828 -124.79C507.01 -127.56 542.01 -71.7547 605.166 46.2148C797.564 405.447 805.219 510.313 891.555 533.843C1015.56 567.642 1084.76 367.261 1277.32 358.488C1281.54 358.294 1285.75 358.101 1289.97 358.124C1427.43 358.881 1547.03 458.141 1628.01 545.996" stroke="#98A2AE" stroke-width="2" stroke-miterlimit="10"/>
<path d="M-57.4258 540.982C226.178 399.14 349.744 246.896 397.53 143.042C450.366 28.2027 429.32 -103.106 473.98 -104.736C502.995 -105.798 537.275 -50.9992 598.136 62.6253C783.944 409.474 793.115 515.72 878.818 537.8C1003.49 569.919 1069.49 356.54 1264 341.621C1268.31 341.289 1272.63 340.97 1276.92 340.832C1416.62 336.371 1542.14 439.852 1626.92 529.683" stroke="#98A2AE" stroke-width="2" stroke-miterlimit="10"/>
<path d="M-64.8545 525.739C210.028 387.176 339.203 240.579 390.484 143.716C446.354 38.1854 426.01 -85.6851 470.139 -84.6832C498.993 -84.0321 532.561 -30.2396 591.114 79.04C770.329 413.482 781.018 521.113 866.084 541.753C991.45 572.172 1054.25 345.74 1250.67 324.736C1255.08 324.274 1259.5 323.812 1263.93 323.526C1405.84 315.021 1537.28 421.553 1625.88 513.379" stroke="#98A2AE" stroke-width="2" stroke-miterlimit="10"/>
<path d="M-72.2842 510.497C193.88 375.208 328.394 234.646 383.452 144.394C442.037 48.3528 422.699 -68.2499 466.306 -64.6345C495.007 -62.252 527.851 -9.4845 584.095 95.4548C756.725 417.489 768.938 526.487 853.358 545.71C979.413 574.407 1039.02 334.866 1237.36 307.882C1241.87 307.268 1246.38 306.645 1250.92 306.247C1395.04 293.734 1532.43 403.277 1624.83 497.089" stroke="#98A2AE" stroke-width="2" stroke-miterlimit="10"/>
<path d="M-79.7078 495.255C177.73 363.226 317.235 229.091 376.402 145.068C437.273 58.6218 419.417 -50.7917 462.456 -44.5813C491.015 -40.4626 523.129 11.289 577.06 111.865C743.101 421.493 756.851 531.848 840.615 549.662C967.385 576.623 1023.78 323.927 1224.03 291.015C1228.65 290.257 1233.24 289.482 1237.89 288.96C1384.21 272.467 1527.54 385.001 1623.75 480.784" stroke="#98A2AE" stroke-width="2" stroke-miterlimit="10"/>
<path d="M-87.1367 480.013C161.579 351.249 291.95 210.358 369.361 145.743C416.246 58.4418 416.13 -33.3102 458.615 -24.5326C487.03 -18.6593 518.415 32.0303 570.037 128.303C729.484 425.524 744.773 537.214 827.881 553.642C955.362 578.839 1008.55 312.947 1210.71 274.171C1215.41 273.27 1220.11 272.347 1224.87 271.691C1373.41 251.259 1522.7 366.726 1622.7 464.504" stroke="#98A2AE" stroke-width="2" stroke-miterlimit="10"/>
<path d="M-94.5664 464.771C145.431 339.271 279.326 202.135 362.319 146.417C409.795 66.8683 412.842 -15.806 454.773 -4.47952C483.05 3.15763 513.695 52.776 563.009 144.694C715.844 429.508 732.702 542.519 815.15 557.576C943.347 580.986 993.303 301.861 1197.39 257.28C1202.18 256.232 1206.98 255.161 1211.86 254.376C1362.61 230.037 1517.81 348.418 1621.64 448.176" stroke="#98A2AE" stroke-width="2" stroke-miterlimit="10"/>
<path d="M-101.995 449.529C129.28 327.293 266.698 193.92 355.274 147.091C403.34 75.2906 409.555 1.71721 450.932 15.5694C479.066 24.9842 508.982 73.536 555.982 161.105C702.251 433.53 720.638 547.824 802.416 561.524C931.343 583.129 978.048 290.742 1184.07 240.404C1188.95 239.212 1193.85 237.998 1198.84 237.079C1351.8 208.858 1512.93 330.124 1620.58 431.868" stroke="#98A2AE" stroke-width="2" stroke-miterlimit="10"/>
<path d="M-109.422 434.288C113.136 315.316 254.072 185.702 348.23 147.77C396.888 83.7222 406.261 19.2681 447.084 35.6229C475.074 46.8339 504.265 94.3006 548.957 177.506C688.633 437.511 708.575 553.107 789.68 565.472C919.336 585.239 962.781 279.568 1170.74 223.527C1175.73 222.184 1180.73 220.835 1185.82 219.778C1341 187.701 1508.06 311.83 1619.52 415.555" stroke="#98A2AE" stroke-width="2" stroke-miterlimit="10"/>
<path d="M-116.851 419.041C96.9758 303.343 241.458 177.483 341.194 148.463C390.443 92.1674 402.965 36.8466 443.238 55.6947C471.076 68.7157 499.547 115.074 541.925 193.953C675.012 441.551 696.511 558.412 776.95 569.457C907.345 587.368 947.502 268.404 1157.42 206.692C1162.5 205.201 1167.58 203.71 1172.8 202.537C1330.21 166.623 1503.19 293.587 1618.45 399.297" stroke="#98A2AE" stroke-width="2" stroke-miterlimit="10"/>
<path d="M-124.28 403.799C80.8285 291.366 228.816 169.264 334.147 149.118C383.987 100.576 399.645 54.411 439.401 75.7249C467.077 90.5652 494.832 135.816 534.902 210.349C661.418 445.54 684.459 563.653 764.21 573.396C895.344 589.413 932.195 257.128 1144.1 189.807C1149.27 188.163 1154.47 186.537 1159.8 185.212C1319.45 145.503 1498.33 275.251 1617.41 382.966" stroke="#98A2AE" stroke-width="2" stroke-miterlimit="10"/>
<path d="M-131.694 388.557C64.6783 279.388 216.189 161.049 327.107 149.801C377.534 109.011 396.317 72.0031 435.56 95.778C463.071 112.447 490.119 156.571 527.88 226.759C647.789 449.548 672.404 568.907 751.477 577.353C883.359 591.454 916.876 245.825 1130.78 172.939C1136.04 171.143 1141.34 169.379 1146.77 167.92C1308.66 124.406 1493.45 256.98 1616.36 366.661" stroke="#98A2AE" stroke-width="2" stroke-miterlimit="10"/>
<path d="M-139.134 373.315C48.5259 267.411 203.564 152.83 320.065 150.471C371.082 117.434 392.978 89.6 431.718 115.841C459.048 134.342 485.404 177.335 520.833 243.183C634.153 453.565 660.329 574.13 738.723 581.314C871.348 593.472 901.518 234.549 1117.44 156.076C1122.79 154.133 1128.19 152.235 1133.73 150.637C1297.87 103.346 1488.56 238.705 1615.25 350.367" stroke="#98A2AE" stroke-width="2" stroke-miterlimit="10"/>
<path d="M-146.562 358.073C32.3749 255.433 190.936 144.611 313.019 151.145C364.633 125.86 389.622 107.206 427.877 135.88C455.018 156.224 480.686 198.085 513.829 259.589C620.556 457.559 648.292 579.329 726.012 585.262C859.38 595.443 886.18 223.185 1104.13 139.223C1109.58 137.127 1115.09 135.095 1120.76 133.363C1287.13 82.286 1483.71 220.406 1614.21 334.035" stroke="#98A2AE" stroke-width="2" stroke-miterlimit="10"/>
<path d="M-153.991 342.831C16.2286 243.46 178.308 136.411 305.979 151.819C358.155 134.273 386.252 124.821 424.036 155.933C450.974 178.12 475.972 218.841 506.802 275.985C606.94 461.549 636.237 584.505 713.278 589.196C847.39 597.369 870.8 211.799 1090.81 122.314C1096.35 120.061 1101.96 117.9 1107.72 116.03C1276.39 61.2493 1478.85 202.121 1613.15 317.749" stroke="#98A2AE" stroke-width="2" stroke-miterlimit="10"/>
<path d="M-161.421 327.571C0.0766794 231.465 165.679 128.16 298.932 152.48C351.723 142.695 382.867 142.414 420.185 175.964C446.919 199.974 471.253 239.577 499.77 292.395C593.318 465.547 624.176 589.681 700.538 593.153C835.398 599.304 855.401 200.426 1077.49 105.475C1083.12 103.064 1088.83 100.774 1094.7 98.7655C1265.65 40.231 1473.96 183.841 1612.09 301.469" stroke="#98A2AE" stroke-width="2" stroke-miterlimit="10"/>
<path d="M-168.848 312.333C-16.0769 219.524 151.299 177.935 291.893 153.172C344.504 143.905 379.476 160.047 416.346 196.035C442.863 221.893 466.541 260.355 492.749 308.829C579.704 469.583 612.118 594.862 687.806 597.129C823.4 601.187 839.981 189.012 1064.17 88.5933C1069.89 86.0353 1075.71 83.6112 1081.68 81.4641C1254.92 19.2079 1469.08 165.547 1611.03 285.141" stroke="#98A2AE" stroke-width="2" stroke-miterlimit="10"/>
<path d="M-176.276 297.096C-32.214 207.519 137.244 124.738 284.852 153.837C338.1 164.337 376.069 177.649 412.505 216.079C438.796 243.784 461.823 281.101 485.722 325.234C566.093 473.582 600.053 599.996 675.072 601.072C811.396 603.03 824.541 177.575 1050.84 71.7169C1056.66 69.0019 1062.59 66.4623 1068.66 64.1675C1244.33 -1.45014 1464.22 147.257 1609.98 268.838" stroke="#98A2AE" stroke-width="2" stroke-miterlimit="10"/>
<path d="M-183.706 281.859C-48.3752 195.546 125.756 109.981 277.811 154.516C331.746 170.316 372.652 195.264 408.663 236.133C434.718 265.684 457.108 301.866 478.694 341.649C552.476 477.594 587.988 605.454 662.337 605.034C799.386 604.258 808.92 165.81 1037.52 54.8541C1043.42 51.9729 1049.46 49.3148 1055.64 46.8799C1233.56 -22.6163 1459.35 128.968 1608.9 252.529" stroke="#98A2AE" stroke-width="2" stroke-miterlimit="10"/>
<path d="M-191.135 266.621C-64.5261 183.577 115.169 95.3162 270.765 155.199C505.328 245.487 525.622 611.115 649.607 608.991C790.946 606.571 793.836 130.912 1042.63 29.5924C1222.79 -43.7778 1454.5 110.683 1607.84 236.234" stroke="#98A2AE" stroke-width="2" stroke-miterlimit="10"/>
</g>
</svg>
