<svg width="64" height="63" viewBox="0 0 64 63" fill="none" xmlns="http://www.w3.org/2000/svg">
<g clip-path="url(#clip0_66_5585)">
<path d="M52.8396 28.2047C54.7279 25.2436 55.6971 23.0029 55.6971 23.0029C55.6971 23.0029 42.1508 12.9384 29.6637 16.2843C17.1767 19.6301 10.4775 35.1194 10.4775 35.1194L10.5051 35.1397C13.5812 30.3156 19.0966 23.5798 26.834 21.5066C38.9938 18.2483 52.1583 27.7069 52.8396 28.2047Z" fill="#E31E24" stroke="#131419" stroke-width="1.1366" stroke-linejoin="round"/>
<path fill-rule="evenodd" clip-rule="evenodd" d="M33.681 47.0601C46.168 43.7142 52.8672 28.2251 52.8672 28.2251C52.8672 28.2251 39.3209 18.1608 26.834 21.5066C14.3469 24.8526 7.64763 40.3417 7.64763 40.3417C7.64763 40.3417 21.1939 50.406 33.681 47.0601ZM32.5566 42.8637C37.2955 41.5939 40.1077 36.7232 38.8379 31.9843C37.5681 27.2454 32.6972 24.433 27.9584 25.7028C23.2195 26.9726 20.4072 31.8436 21.677 36.5825C22.9468 41.3214 27.8177 44.1335 32.5566 42.8637Z" fill="white" stroke="#131419" stroke-width="1.1366" stroke-linejoin="round"/>
<path d="M33.6035 42.5133C29.2264 43.1244 24.9789 40.3907 23.8056 36.0121C22.6324 31.6336 24.9441 27.1423 29.0403 25.4831C28.6755 25.534 28.3142 25.6074 27.9585 25.7028C23.2196 26.9726 20.4073 31.8436 21.6771 36.5825C22.9469 41.3214 27.8178 44.1335 32.5567 42.8637C32.9125 42.7685 33.2621 42.6514 33.6035 42.5133Z" fill="#131419" stroke="#131419" stroke-width="1.1366" stroke-linejoin="round"/>
<path d="M34.5153 31.0418C34.2132 31.5489 33.7249 31.9178 33.1545 32.0698C31.9439 32.3942 30.6994 31.6757 30.375 30.465C30.2664 30.0597 30.2748 29.6507 30.3793 29.2736C30.0798 29.297 29.7831 29.348 29.4929 29.4259C26.8987 30.1211 25.3592 32.7877 26.0543 35.3818C26.7494 37.9762 29.416 39.5157 32.0102 38.8206C34.6046 38.1255 36.1441 35.4589 35.449 32.8645C35.2642 32.1751 34.9403 31.5601 34.5153 31.0418Z" fill="#E31E24" stroke="#131419" stroke-width="1.1366" stroke-linejoin="round"/>
</g>
<defs>
<clipPath id="clip0_66_5585">
<rect width="51.7208" height="51.7208" fill="white" transform="translate(0 13.3862) rotate(-15)"/>
</clipPath>
</defs>
</svg>
