<svg width="25" height="24" viewBox="0 0 25 24" fill="none" xmlns="http://www.w3.org/2000/svg">
<path d="M15.4999 10.0001L11.4999 14.0001L9.4999 12.0001M13.746 3.45879L14.967 4.49929C15.2746 4.76143 15.6568 4.91988 16.0596 4.95203L17.6586 5.07969C18.5987 5.15471 19.3458 5.90121 19.4208 6.84134L19.5474 8.44046C19.5796 8.84333 19.7383 9.22581 20.0005 9.53341L21.0414 10.7543C21.6531 11.4722 21.6526 12.5279 21.0409 13.2457L20.0009 14.4667C19.7387 14.7743 19.5799 15.1568 19.5478 15.5597L19.4198 17.1587C19.3448 18.0989 18.5992 18.8454 17.6591 18.9204L16.0595 19.0481C15.6566 19.0802 15.2743 19.2386 14.9667 19.5007L13.746 20.5413C13.0282 21.153 11.9716 21.153 11.2538 20.5413L10.0331 19.5008C9.7255 19.2386 9.3432 19.0802 8.94033 19.048L7.34072 18.9205C6.40059 18.8454 5.65501 18.0989 5.57998 17.1587L5.45205 15.5596C5.4199 15.1568 5.26107 14.7743 4.99893 14.4667L3.95889 13.2458C3.34716 12.528 3.34697 11.4721 3.9587 10.7543L4.99939 9.53338C5.26152 9.22577 5.41949 8.84335 5.45163 8.44048L5.57966 6.84136C5.65468 5.90123 6.40155 5.15467 7.34168 5.07964L8.93982 4.95208C9.34269 4.91993 9.72566 4.76146 10.0333 4.49932L11.2541 3.45879C11.9719 2.84707 13.0282 2.84707 13.746 3.45879Z" stroke="#131419" stroke-width="2" stroke-linecap="round" stroke-linejoin="round"/>
</svg>
