<svg width="94" height="94" viewBox="0 0 94 94" fill="none" xmlns="http://www.w3.org/2000/svg">
<g clip-path="url(#clip0_66_5691)">
<path d="M27.7266 39.2586L41.6147 13.0053L44.0358 33.8349L58.9437 36.8341L49.0958 55.4501L59.2306 55.9242L42.8174 86.9507L43.5408 65.9513L28.8853 62.4749L38.2281 44.8136L27.7266 39.2586Z" fill="white" stroke="#131419" stroke-width="1.1366" stroke-linejoin="round"/>
<path d="M51.8933 28.2183L49.4725 7.38858L41.6137 13.0057L44.0351 33.8355L51.8933 28.2183Z" fill="#131419" stroke="#131419" stroke-width="1.1366" stroke-linejoin="round"/>
<path d="M66.8015 31.2174L51.8933 28.2183L44.0351 33.8352L58.943 36.8344L66.8015 31.2174Z" fill="#E31E24" stroke="#131419" stroke-width="1.1366" stroke-linejoin="round"/>
<path d="M56.9538 49.8333L66.8017 31.2173L58.9432 36.8345L49.0955 55.4502L56.9538 49.8333Z" fill="#131419" stroke="#131419" stroke-width="1.1366" stroke-linejoin="round"/>
<path d="M67.0884 50.3071L56.9536 49.833L49.0954 55.4502L59.2301 55.924L67.0884 50.3071Z" fill="#E31E24" stroke="#131419" stroke-width="1.1366" stroke-linejoin="round"/>
<path d="M42.8168 86.9508L50.6753 81.3338L67.0884 50.307L59.23 55.9243L42.8168 86.9508Z" fill="#131419" stroke="#131419" stroke-width="1.1366" stroke-linejoin="round"/>
</g>
<defs>
<clipPath id="clip0_66_5691">
<rect width="76.2179" height="76.2179" fill="white" transform="translate(0 19.7266) rotate(-15)"/>
</clipPath>
</defs>
</svg>
