<svg width="56" height="56" viewBox="0 0 56 56" fill="none" xmlns="http://www.w3.org/2000/svg">
<g clip-path="url(#clip0_66_5698)">
<path d="M20.1374 18.244L35.0473 8.8833L30.1168 20.2934L36.8807 26.2513L26.3081 32.8888L31.3701 36.1359L13.7493 47.1984L20.3443 36.6331L13.8515 30.5051L23.8818 24.2079L20.1374 18.244Z" fill="white" stroke="#131419" stroke-width="1.1366" stroke-linejoin="round"/>
<path d="M35.8153 19.7386L40.746 8.32851L35.0471 8.88283L30.1166 20.2931L35.8153 19.7386Z" fill="#131419" stroke="#131419" stroke-width="1.1366" stroke-linejoin="round"/>
<path d="M42.5792 25.697L35.8152 19.7391L30.1166 20.2935L36.8805 26.2514L42.5792 25.697Z" fill="#E31E24" stroke="#131419" stroke-width="1.1366" stroke-linejoin="round"/>
<path d="M32.0067 32.3344L42.5792 25.6969L36.8804 26.2514L26.3081 32.8888L32.0067 32.3344Z" fill="#131419" stroke="#131419" stroke-width="1.1366" stroke-linejoin="round"/>
<path d="M37.0687 35.5813L32.0067 32.3343L26.308 32.8888L31.37 36.1357L37.0687 35.5813Z" fill="#E31E24" stroke="#131419" stroke-width="1.1366" stroke-linejoin="round"/>
<path d="M13.7492 47.1985L19.448 46.6442L37.0688 35.5815L31.37 36.136L13.7492 47.1985Z" fill="#131419" stroke="#131419" stroke-width="1.1366" stroke-linejoin="round"/>
</g>
<defs>
<clipPath id="clip0_66_5698">
<rect width="45.1779" height="45.1779" fill="white" transform="translate(11.6934) rotate(15)"/>
</clipPath>
</defs>
</svg>
