<svg width="1440" height="827" viewBox="0 0 1440 827" fill="none" xmlns="http://www.w3.org/2000/svg">
<g opacity="0.1">
<path d="M-3.12378 111.26C51.6892 143.581 100.221 185.527 140.139 235.082C234.143 352.849 221.328 446.246 275.268 460.857C358.619 483.426 412.44 266.603 587.681 232.34C716.212 207.193 846.998 292.636 877.27 312.432C995.369 389.572 1011.03 475.038 1095.71 477.311C1157.65 479.039 1175.94 434.063 1272.81 415.013C1340.24 401.752 1399.27 410.177 1439.05 419.538" stroke="#98A2AE" stroke-width="2" stroke-miterlimit="10"/>
<path d="M-3.06934 121.473C51.7487 153.804 100.287 195.756 140.217 245.315C234.223 363.104 221.406 456.479 275.324 471.091C358.697 493.659 412.518 276.836 587.738 242.575C716.291 217.448 847.077 302.89 877.348 322.665C995.447 399.805 1011.08 485.273 1095.78 487.544C1157.73 489.272 1176 444.298 1272.89 425.246C1340.34 411.984 1399.34 420.41 1439.13 429.771" stroke="#98A2AE" stroke-width="2" stroke-miterlimit="10"/>
<path d="M-3.0144 131.686C51.8087 164.011 100.348 205.964 140.272 255.528C234.278 373.318 221.461 466.692 275.401 481.303C358.686 503.877 412.595 287.048 587.814 252.786C716.346 227.661 847.132 313.104 877.403 332.878C995.503 410.04 1011.16 495.485 1095.84 497.757C1157.78 499.485 1176.07 454.488 1272.94 435.437C1340.39 422.175 1399.4 430.602 1439.18 439.963" stroke="#98A2AE" stroke-width="2" stroke-miterlimit="10"/>
<path d="M-2.91772 141.896C51.8951 174.237 100.427 216.197 140.348 265.761C234.355 383.551 221.537 476.926 275.456 491.538C358.828 514.106 412.65 297.283 587.869 263.021C716.423 237.894 847.209 323.337 877.479 343.112C995.58 420.273 1011.22 505.72 1095.91 507.99C1157.86 509.719 1176.13 464.723 1273.02 445.671C1340.47 432.409 1399.47 440.835 1439.26 450.196" stroke="#98A2AE" stroke-width="2" stroke-miterlimit="10"/>
<path d="M-2.8855 152.111C51.9325 184.443 100.471 226.395 140.4 275.953C234.429 393.741 221.591 487.139 275.53 501.728C358.88 524.297 412.724 307.473 587.943 273.211C716.497 248.084 847.261 333.528 877.553 353.301C995.632 430.465 1011.29 515.909 1095.97 518.182C1157.91 519.91 1176.2 474.912 1273.07 455.862C1340.52 442.6 1399.53 451.048 1439.31 460.387" stroke="#98A2AE" stroke-width="2" stroke-miterlimit="10"/>
<path d="M-2.80859 162.322C52.005 194.66 100.543 236.611 140.477 286.164C234.484 403.954 221.668 497.35 275.585 511.941C358.892 534.514 412.779 317.686 588.013 283.335C716.545 258.21 847.331 343.653 877.602 363.427C995.703 440.589 1011.34 526.035 1096.04 528.306C1157.98 530.034 1176.25 485.038 1273.14 465.986C1340.59 452.724 1399.6 461.172 1439.4 470.51" stroke="#98A2AE" stroke-width="2" stroke-miterlimit="10"/>
<path d="M-2.71094 172.554C52.1017 204.896 100.628 246.865 140.535 296.443C234.563 414.231 221.726 507.629 275.664 522.218C359.016 544.809 412.86 327.984 588.079 293.723C716.631 268.574 847.396 354.018 877.688 373.791C995.767 450.955 1011.42 536.399 1096.1 538.672C1158.04 540.4 1176.34 495.402 1273.2 476.352C1340.66 463.112 1399.66 471.538 1439.44 480.877" stroke="#98A2AE" stroke-width="2" stroke-miterlimit="10"/>
<path d="M-2.68457 182.679C52.1385 215.004 100.678 256.957 140.601 306.521C234.606 424.289 221.791 517.685 275.709 532.298C359.081 554.865 412.903 338.043 588.144 303.779C716.674 278.632 847.461 364.075 877.732 383.872C995.832 461.011 1011.47 546.458 1096.17 548.75C1158.11 550.478 1176.4 505.481 1273.27 486.452C1340.7 473.192 1399.71 481.618 1439.51 490.978" stroke="#98A2AE" stroke-width="2" stroke-miterlimit="10"/>
<path d="M-2.62476 192.978C52.2007 225.307 100.747 267.258 140.683 316.818C234.688 434.586 221.851 527.984 275.79 542.594C359.098 565.167 412.985 348.339 588.199 314.012C716.751 288.864 847.515 374.308 877.809 394.103C995.886 471.244 1011.54 556.711 1096.22 558.983C1158.17 560.711 1176.46 515.735 1273.32 496.685C1340.78 483.423 1399.78 491.849 1439.57 501.211" stroke="#98A2AE" stroke-width="2" stroke-miterlimit="10"/>
<path d="M-2.50464 203.186C52.3078 235.548 100.834 277.531 140.745 327.118C234.751 444.908 221.934 538.283 275.874 552.894C359.224 575.463 413.046 358.64 588.287 324.377C716.818 299.23 847.604 384.673 877.876 404.469C995.975 481.609 1011.61 567.077 1096.31 569.348C1158.25 571.076 1176.55 526.1 1273.41 507.05C1340.85 493.789 1399.85 502.216 1439.65 511.575" stroke="#98A2AE" stroke-width="2" stroke-miterlimit="10"/>
<path d="M-2.47534 213.358C52.3382 245.696 100.876 287.647 140.811 337.2C234.817 454.99 222 548.364 275.918 562.977C359.269 585.546 413.112 368.722 588.332 334.46C716.885 309.333 847.65 394.778 877.942 414.551C996.019 491.692 1011.68 577.159 1096.38 579.429C1158.3 581.159 1176.59 536.183 1273.48 517.131C1340.94 503.869 1399.94 512.296 1439.72 521.657" stroke="#98A2AE" stroke-width="2" stroke-miterlimit="10"/>
<path d="M-2.41968 223.614C52.3984 255.946 100.937 297.898 140.866 347.456C234.873 465.246 222.056 558.62 275.995 573.231C359.346 595.801 413.168 378.978 588.409 344.714C716.941 319.589 847.727 405.032 877.997 424.807C996.098 501.968 1011.73 587.415 1096.43 589.685C1158.38 591.413 1176.67 546.416 1273.53 527.365C1340.97 514.105 1399.97 522.532 1439.77 531.891" stroke="#98A2AE" stroke-width="2" stroke-miterlimit="10"/>
<path d="M-2.29883 233.822C52.5103 266.167 101.047 308.117 140.987 357.664C234.994 475.454 222.176 568.828 276.094 583.441C359.4 605.992 413.282 389.099 588.464 354.928C717.018 329.801 847.783 415.245 878.075 435.018C996.154 512.181 1011.81 597.626 1096.51 599.897C1158.43 601.626 1176.72 556.629 1273.61 537.577C1341.07 524.315 1400.07 532.763 1439.85 542.102" stroke="#98A2AE" stroke-width="2" stroke-miterlimit="10"/>
<path d="M-2.28882 244.039C52.5292 276.371 101.068 318.323 140.997 367.881C235.004 485.671 222.188 579.067 276.126 593.656C359.477 616.225 413.299 399.403 588.54 365.139C717.072 340.014 847.858 425.457 878.106 445.233C996.207 522.395 1011.84 607.841 1096.54 610.112C1158.48 611.84 1176.78 566.842 1273.64 547.792C1341.08 534.532 1400.08 542.98 1439.88 552.317" stroke="#98A2AE" stroke-width="2" stroke-miterlimit="10"/>
<path d="M-2.21265 254.25C52.6009 286.589 101.138 328.539 141.073 378.092C235.08 495.882 222.264 589.278 276.181 603.869C359.51 626.44 413.375 409.614 588.596 375.374C717.15 350.247 847.914 435.692 878.206 455.465C996.285 532.628 1011.94 618.073 1096.64 620.343C1158.56 622.073 1176.86 577.075 1273.74 558.023C1341.2 544.783 1400.2 553.21 1439.98 562.549" stroke="#98A2AE" stroke-width="2" stroke-miterlimit="10"/>
<path d="M-2.09058 264.48C52.7367 296.799 101.277 338.753 141.195 388.322C235.2 506.09 222.385 599.486 276.323 614.075C359.61 636.671 413.492 419.778 588.673 385.585C717.203 360.438 847.989 445.881 878.259 465.656C996.36 542.817 1012 628.264 1096.69 630.534C1158.64 632.262 1176.93 587.265 1273.8 568.214C1341.23 554.976 1400.23 563.402 1440.04 572.74" stroke="#98A2AE" stroke-width="2" stroke-miterlimit="10"/>
<path d="M-2.07886 274.718C52.7442 307.043 101.284 348.995 141.207 398.56C235.212 516.328 222.396 609.724 276.314 624.336C359.665 646.906 413.509 430.081 588.728 395.82C717.28 370.671 848.044 456.115 878.338 475.91C996.415 553.051 1012.07 638.518 1096.77 640.789C1158.72 642.517 1176.99 597.543 1273.88 578.491C1341.33 565.229 1400.33 573.655 1440.12 583.016" stroke="#98A2AE" stroke-width="2" stroke-miterlimit="10"/>
<path d="M-2.0271 284.91C52.796 317.235 101.336 359.188 141.259 408.752C235.264 526.52 222.448 619.916 276.388 634.527C359.717 657.098 413.561 440.274 588.805 406.054C717.335 380.907 848.121 466.35 878.393 486.146C996.492 563.286 1012.13 648.754 1096.83 651.025C1158.77 652.753 1177.07 607.777 1273.93 588.727C1341.37 575.467 1400.37 583.893 1440.17 593.252" stroke="#98A2AE" stroke-width="2" stroke-miterlimit="10"/>
<path d="M-1.8855 295.116C52.9326 327.448 101.471 369.4 141.4 418.958C235.407 536.748 222.59 630.122 276.508 644.735C359.797 667.353 413.701 450.458 588.856 416.223C717.41 391.096 848.196 476.539 878.466 496.314C996.544 573.455 1012.2 658.922 1096.9 661.192C1158.84 662.92 1177.12 617.946 1274 598.894C1341.46 585.632 1400.46 594.059 1440.24 603.42" stroke="#98A2AE" stroke-width="2" stroke-miterlimit="10"/>
<path d="M-1.89136 305.398C52.9317 337.723 101.472 379.676 141.395 429.24C235.401 547.03 222.584 640.404 276.524 655.015C359.875 677.585 413.696 460.762 588.937 426.499C717.464 401.308 848.25 486.751 878.521 506.525C996.621 583.687 1012.26 669.133 1096.96 671.404C1158.9 673.132 1177.19 628.135 1274.06 609.084C1341.49 595.824 1400.49 604.25 1440.3 613.61" stroke="#98A2AE" stroke-width="2" stroke-miterlimit="10"/>
<path d="M-1.82104 315.546C52.997 347.878 101.536 389.83 141.465 439.388C235.471 557.177 222.654 650.552 276.572 665.164C359.923 687.734 413.767 470.909 588.993 436.735C717.547 411.608 848.333 497.051 878.603 516.825C996.682 593.989 1012.34 679.433 1097.04 681.704C1158.98 683.432 1177.25 638.436 1274.14 619.384C1341.59 606.122 1400.6 614.549 1440.38 623.91" stroke="#98A2AE" stroke-width="2" stroke-miterlimit="10"/>
<path d="M-1.67969 325.752C53.1384 358.084 101.677 400.036 141.606 449.594C235.613 567.384 222.797 660.78 276.735 675.369C360.006 698.033 413.91 481.138 589.062 446.859C717.594 421.734 848.38 507.177 878.65 526.952C996.751 604.113 1012.39 689.559 1097.09 691.83C1159.03 693.558 1177.32 648.561 1274.19 629.51C1341.62 616.25 1400.65 624.697 1440.43 634.036" stroke="#98A2AE" stroke-width="2" stroke-miterlimit="10"/>
<path d="M-1.68164 336.078C53.1319 368.416 101.67 410.367 141.604 459.92C235.611 577.709 222.795 671.105 276.712 685.696C360.062 708.266 413.906 491.441 589.125 457.18C717.671 431.944 848.457 517.386 878.727 537.161C996.828 614.322 1012.46 699.769 1097.16 702.04C1159.1 703.768 1177.38 658.772 1274.26 639.72C1341.72 626.458 1400.72 634.906 1440.5 644.245" stroke="#98A2AE" stroke-width="2" stroke-miterlimit="10"/>
<path d="M-1.63477 346.206C53.1859 378.524 101.725 420.469 141.649 470.026C235.656 587.815 222.84 681.212 276.779 695.801C360.131 718.392 413.953 501.569 589.192 467.284C717.724 442.159 848.51 527.601 878.781 547.376C996.881 624.538 1012.54 709.982 1097.22 712.255C1159.16 713.983 1177.45 668.985 1274.32 649.935C1341.75 636.697 1400.78 645.121 1440.56 654.46" stroke="#98A2AE" stroke-width="2" stroke-miterlimit="10"/>
<path d="M-1.47241 356.406C53.3507 388.731 101.89 430.684 141.814 480.248C235.818 598.016 223.003 691.412 276.921 706.025C360.215 728.708 414.119 511.813 589.247 477.515C717.8 452.366 848.586 537.809 878.858 557.605C996.957 634.745 1012.59 720.192 1097.29 722.484C1159.24 724.212 1177.51 679.216 1274.4 660.186C1341.85 646.924 1400.85 655.35 1440.64 664.711" stroke="#98A2AE" stroke-width="2" stroke-miterlimit="10"/>
<path d="M-1.50464 366.626C53.3184 398.951 101.858 440.904 141.781 490.468C235.786 608.236 222.971 701.632 276.91 716.243C360.261 738.813 414.105 521.988 589.324 487.727C717.854 462.58 848.635 547.957 878.934 567.817C997.011 644.958 1012.67 730.425 1097.35 732.697C1159.29 734.426 1177.58 689.45 1274.45 670.399C1341.91 657.137 1400.91 665.564 1440.69 674.925" stroke="#98A2AE" stroke-width="2" stroke-miterlimit="10"/>
<path d="M-1.42847 376.838C53.3896 409.17 101.928 451.122 141.857 500.68C235.864 618.469 223.047 711.844 276.965 726.457C360.337 749.024 414.159 532.201 589.378 497.94C717.931 472.791 848.717 558.234 878.989 578.03C997.088 655.17 1012.72 740.638 1097.42 742.909C1159.37 744.637 1177.64 699.663 1274.53 680.611C1341.98 667.349 1400.99 675.775 1440.77 685.136" stroke="#98A2AE" stroke-width="2" stroke-miterlimit="10"/>
</g>
</svg>
