<svg width="64" height="64" viewBox="0 0 64 64" fill="none" xmlns="http://www.w3.org/2000/svg">
<g clip-path="url(#clip0_71_16724)">
<rect width="64" height="64" fill="#333333"/>
<path d="M12.8008 16H51.2008V35.5561C51.2008 40.5708 48.5292 45.1942 44.1854 47.711L32.0008 54.8884L19.829 47.711C15.4853 45.2129 12.8194 40.5708 12.8194 35.5561V16H12.8008Z" fill="#FFDD2D"/>
<path fill-rule="evenodd" clip-rule="evenodd" d="M23.1387 26.2911V32.3685C23.9776 31.4364 25.4876 30.8025 27.2028 30.8025H29.0857V37.8681C29.0857 39.7509 28.5823 41.3914 27.818 42.3049H36.1799C35.4156 41.3914 34.9541 39.7509 34.9541 37.8681V30.8025H36.7854C38.5192 30.8025 40.0415 31.4364 40.8617 32.3685V26.2911H23.1387Z" fill="#333333"/>
</g>
<defs>
<clipPath id="clip0_71_16724">
<rect width="64" height="64" rx="16" fill="white"/>
</clipPath>
</defs>
</svg>
