<svg width="64" height="64" viewBox="0 0 64 64" fill="none" xmlns="http://www.w3.org/2000/svg">
<g clip-path="url(#clip0_71_16746)">
<mask id="mask0_71_16746" style="mask-type:luminance" maskUnits="userSpaceOnUse" x="0" y="0" width="64" height="65">
<path d="M13.568 0H50.464C57.92 0 64 6.08 64 13.568V50.464C64 57.952 57.92 64.032 50.432 64.032H13.568C6.08 64 0 57.92 0 50.432V13.568C0 6.08 6.08 0 13.568 0Z" fill="white"/>
</mask>
<g mask="url(#mask0_71_16746)">
<path d="M38.4 0H25.6C16.6392 0 12.1587 0 8.73615 1.7439C5.72556 3.27787 3.27787 5.72556 1.7439 8.73615C0 12.1587 0 16.6392 0 25.6V38.4C0 47.3608 0 51.8413 1.7439 55.2638C3.27787 58.2744 5.72556 60.7221 8.73615 62.2561C12.1587 64 16.6392 64 25.6 64H38.4C47.3608 64 51.8413 64 55.2638 62.2561C58.2744 60.7221 60.7221 58.2744 62.2561 55.2638C64 51.8413 64 47.3608 64 38.4V25.6C64 16.6392 64 12.1587 62.2561 8.73615C60.7221 5.72556 58.2744 3.27787 55.2638 1.7439C51.8413 0 47.3608 0 38.4 0Z" fill="#005BFF"/>
<path fill-rule="evenodd" clip-rule="evenodd" d="M31.521 32.096L30.593 28.448L36.801 24.288L44.225 24.8L45.313 28.352L79.233 64.832L26.209 80.896L31.521 32.096Z" fill="#F91155"/>
<path fill-rule="evenodd" clip-rule="evenodd" d="M6.81642 42.784C4.41642 43.776 1.72842 42.176 1.34442 39.52C1.08842 37.696 2.08042 35.936 3.71242 35.264C6.11242 34.272 8.80042 35.872 9.18442 38.528C9.44042 40.32 8.44842 42.112 6.81642 42.784ZM4.03242 31.488C-0.607578 32.224 -3.35958 37.152 -1.66358 41.664C-0.415578 45.024 3.04042 47.104 6.49642 46.528C11.1364 45.792 13.8884 40.864 12.1924 36.352C10.9124 32.992 7.45642 30.944 4.03242 31.488Z" fill="white"/>
<path fill-rule="evenodd" clip-rule="evenodd" d="M14.4332 28.832C13.3772 29.12 12.8332 30.304 13.3452 31.328C13.7292 32.096 14.6252 32.448 15.4252 32.224L20.1292 30.976L15.4252 42.752C15.2652 43.136 15.6172 43.552 16.0332 43.424L27.5212 40.352C28.3212 40.128 28.9292 39.392 28.8652 38.528C28.8012 37.376 27.7132 36.608 26.6572 36.896L20.9292 38.432L25.6012 26.688C25.7612 26.304 25.4092 25.888 24.9932 25.984L14.4332 28.832Z" fill="white"/>
<path fill-rule="evenodd" clip-rule="evenodd" d="M60.3195 16.48C59.5835 16.864 59.2315 17.728 59.4555 18.56L60.9915 24.256L49.8235 19.36C49.4395 19.2 49.0235 19.552 49.1195 19.968L52.2875 31.744C52.5115 32.544 53.2475 33.152 54.0795 33.12C55.2315 33.056 55.9675 31.968 55.7115 30.88L54.1755 25.12L65.3435 30.016C65.7275 30.176 66.1435 29.824 66.0475 29.408L62.8475 17.6C62.5595 16.512 61.3435 15.936 60.3195 16.48Z" fill="white"/>
<path fill-rule="evenodd" clip-rule="evenodd" d="M36.3516 22.592C30.7516 24.096 27.1036 28.608 28.2236 32.672C29.3116 36.736 34.7196 38.816 40.3196 37.344C45.9196 35.84 49.5676 31.328 48.4476 27.264C47.3596 23.168 41.9516 21.088 36.3516 22.592ZM37.2796 26.016C41.1516 24.992 44.5756 26.272 45.0876 28.128C45.5996 29.984 43.2636 32.832 39.3916 33.856C35.5196 34.88 32.0956 33.6 31.5836 31.744C31.1036 29.92 33.4076 27.04 37.2796 26.016Z" fill="white"/>
</g>
</g>
<defs>
<clipPath id="clip0_71_16746">
<rect width="64" height="64" fill="white"/>
</clipPath>
</defs>
</svg>
