<svg width="24" height="24" viewBox="0 0 24 24" fill="none" xmlns="http://www.w3.org/2000/svg">
<path d="M4.74781 7.64527L4.41783 11.2751L4.41685 11.2859C4.36762 11.8274 4.34286 12.0998 4.38784 12.3585C4.42796 12.5892 4.50796 12.8112 4.62486 13.0142C4.75604 13.2419 4.94984 13.4357 5.33494 13.8208L5.34166 13.8275L10.5044 18.9903L10.5091 18.9949C11.298 19.7838 11.6927 20.1786 12.1485 20.3267C12.5502 20.4572 12.9829 20.4572 13.3846 20.3267C13.8413 20.1783 14.2381 19.7822 15.0301 18.9902L18.9899 15.0304C19.782 14.2384 20.1772 13.8424 20.3255 13.3858C20.4561 12.9841 20.4561 12.5514 20.3255 12.1497C20.1772 11.6931 19.7818 11.2971 18.9897 10.505L13.827 5.3423C13.4374 4.95273 13.2426 4.75792 13.0135 4.62599C12.8106 4.50909 12.5885 4.42872 12.3577 4.3886C12.0973 4.34332 11.8229 4.36822 11.2742 4.4181L7.64439 4.74808L7.6435 4.74817C6.69934 4.834 6.22684 4.87695 5.85728 5.08246C5.53136 5.2637 5.26258 5.53248 5.08133 5.85841C4.87682 6.22619 4.83414 6.69568 4.74913 7.63081L4.74781 7.64527Z" stroke="#636F7D" stroke-width="2" stroke-linecap="round" stroke-linejoin="round"/>
</svg>
