<svg width="1440" height="509" viewBox="0 0 1440 509" fill="none" xmlns="http://www.w3.org/2000/svg">
<g opacity="0.1">
<path d="M-60.002 6.11784C159.038 94.4733 277.109 211.003 345.204 306.334C401.968 385.811 400.961 418.322 461.236 477.618C592.04 606.288 842.608 695.019 964.047 584.444C1023.87 529.975 1001.74 460.948 1030.35 330.275C1056.1 212.725 1122.65 51.0538 1308.46 -124.65" stroke="#98A2AE" stroke-width="2" stroke-miterlimit="10"/>
<path d="M-59.5635 34.6243C153.489 110.559 270.379 220.186 338.439 309.402C395.705 384.492 400.361 414.519 464.384 472.796C598.691 595.048 834.006 680.161 955.615 576.988C1018.26 523.849 1004.01 456.003 1037.53 325.713C1067.05 211.007 1134.96 52.1003 1317.58 -122.028" stroke="#98A2AE" stroke-width="2" stroke-miterlimit="10"/>
<path d="M-59.126 63.1272C147.936 126.645 263.735 229.396 331.684 312.471C389.57 383.244 399.657 410.72 467.543 467.974C605.056 583.951 825.779 665.501 947.202 569.536C1012.8 517.688 1006.18 451.126 1044.73 321.156C1077.9 209.321 1147.29 53.159 1326.71 -119.385" stroke="#98A2AE" stroke-width="2" stroke-miterlimit="10"/>
<path d="M-58.6875 91.6336C142.383 142.735 257.207 238.633 324.931 315.563C383.512 382.071 398.84 406.948 470.718 463.147C611.166 573.011 817.908 651.062 938.798 562.079C1007.49 511.527 1008.26 446.303 1051.94 316.594C1088.61 207.658 1159.64 54.2172 1335.84 -116.755" stroke="#98A2AE" stroke-width="2" stroke-miterlimit="10"/>
<path d="M-58.2478 120.136C136.851 158.813 250.814 247.871 318.179 318.612C377.558 380.961 397.956 403.212 473.855 458.325C616.992 562.233 810.322 636.861 930.36 554.623C1002.28 505.354 1010.19 441.513 1059.11 312.032C1099.17 206.004 1171.95 55.2718 1344.94 -114.105" stroke="#98A2AE" stroke-width="2" stroke-miterlimit="10"/>
<path d="M-57.8098 148.639C131.282 174.898 244.566 257.112 311.425 321.681C371.728 379.918 396.929 399.531 477.014 453.499C622.624 551.633 803.047 622.899 921.939 547.17C997.218 499.217 1011.98 436.746 1066.3 307.471C1109.61 204.345 1184.27 56.3301 1354.06 -111.495" stroke="#98A2AE" stroke-width="2" stroke-miterlimit="10"/>
<path d="M-57.3721 177.141C125.729 190.964 238.491 266.314 304.671 324.749C366.032 378.931 395.834 395.913 480.169 448.677C628.073 541.207 796.032 609.191 913.518 539.714C992.281 493.135 1013.7 431.979 1073.49 302.913C1119.93 202.67 1196.61 57.3886 1363.18 -108.86" stroke="#98A2AE" stroke-width="2" stroke-miterlimit="10"/>
<path d="M-56.918 205.648C120.192 207.066 232.623 275.473 297.933 327.818C360.511 377.975 394.693 392.375 483.341 443.855C633.377 530.958 789.271 595.732 905.114 532.257C987.482 487.128 1015.27 427.204 1080.7 298.352C1130.13 200.976 1208.92 58.4589 1372.3 -106.23" stroke="#98A2AE" stroke-width="2" stroke-miterlimit="10"/>
<path d="M-56.4954 234.151C114.623 223.152 226.928 284.545 291.164 330.891C355.144 377.035 393.421 388.946 486.484 439.028C638.535 520.883 782.687 582.525 896.678 524.805C982.775 481.22 1016.69 422.39 1087.88 293.79C1140.21 199.246 1221.25 59.5014 1381.44 -103.6" stroke="#98A2AE" stroke-width="2" stroke-miterlimit="10"/>
<path d="M-56.0576 262.642C109.074 239.226 221.457 293.486 284.41 333.948C349.942 376.064 392.117 385.558 489.639 434.195C643.578 510.963 776.269 569.548 888.257 517.337C978.165 475.422 1017.99 417.516 1095.07 289.217C1150.19 197.461 1233.58 60.5482 1390.54 -100.981" stroke="#98A2AE" stroke-width="2" stroke-miterlimit="10"/>
<path d="M-55.6172 291.16C103.543 255.323 216.202 302.301 277.663 337.028C344.952 375.053 390.769 382.315 492.801 429.38C648.556 501.227 770.003 556.834 879.839 509.896C973.665 469.798 1019.17 412.599 1102.26 284.667C1160.08 195.652 1245.91 61.6184 1399.67 -98.3313" stroke="#98A2AE" stroke-width="2" stroke-miterlimit="10"/>
<path d="M-55.1797 319.663C97.9691 271.405 211.146 310.915 270.908 340.097C340.149 373.911 389.389 379.172 495.955 424.558C653.472 491.634 763.849 544.335 871.419 502.44C969.249 464.34 1020.22 407.592 1109.45 280.11C1169.88 193.776 1258.23 62.673 1408.79 -95.7048" stroke="#98A2AE" stroke-width="2" stroke-miterlimit="10"/>
<path d="M-54.7412 348.169C92.4164 287.491 206.265 319.307 264.155 343.169C335.528 372.588 387.944 376.135 499.115 419.736C658.35 482.187 757.775 532.056 863.002 494.983C964.896 459.083 1021.16 402.493 1116.64 275.548C1179.6 191.841 1270.56 63.7312 1417.91 -93.0747" stroke="#98A2AE" stroke-width="2" stroke-miterlimit="10"/>
<path d="M-54.3027 376.672C86.8677 303.577 201.53 327.455 257.402 346.238C331.069 371.004 386.491 373.212 502.263 414.91C663.192 472.871 751.749 519.963 854.575 487.531C960.627 454.06 1021.98 397.284 1123.83 270.986C1189.27 189.839 1282.88 64.7778 1427.03 -90.4326" stroke="#98A2AE" stroke-width="2" stroke-miterlimit="10"/>
<path d="M-53.8652 405.174C81.314 319.659 196.888 335.338 250.632 349.307C326.712 369.077 385.005 370.4 505.414 410.087C668.029 463.684 745.745 508.103 846.146 480.074C956.393 449.297 1022.71 391.96 1131.01 266.413C1198.87 187.757 1295.2 65.8324 1436.14 -87.8259" stroke="#98A2AE" stroke-width="2" stroke-miterlimit="10"/>
<path d="M-53.427 433.681C75.7807 335.744 192.287 342.952 243.894 352.375C322.447 366.719 383.54 367.703 508.585 405.261C672.879 454.628 739.765 496.409 837.741 472.622C952.214 444.822 1023.36 386.525 1138.22 261.867C1208.46 185.629 1307.54 66.9026 1445.27 -85.1799" stroke="#98A2AE" stroke-width="2" stroke-miterlimit="10"/>
<path d="M-52.9688 462.184C70.228 351.83 188.22 364.587 237.16 355.448C317.21 340.495 382.079 365.12 511.764 400.439C677.756 445.655 733.747 484.888 829.321 465.165C948.036 440.679 1023.93 380.929 1145.41 257.306C1218 183.429 1319.87 67.9609 1454.39 -82.5339" stroke="#98A2AE" stroke-width="2" stroke-miterlimit="10"/>
<path d="M-52.5488 490.686C64.6607 367.916 184.058 369.207 230.388 358.517C311.591 339.781 380.579 362.644 514.901 395.617C682.651 436.809 727.658 473.538 820.903 457.709C943.847 436.864 1024.43 375.214 1152.6 252.736C1227.53 181.146 1332.19 69.0076 1463.51 -79.9272" stroke="#98A2AE" stroke-width="2" stroke-miterlimit="10"/>
<path d="M-52.1113 519.193C59.107 383.998 179.35 373.374 223.634 361.585C306.298 339.583 379.105 360.278 518.06 390.811C687.571 428.037 721.492 462.318 812.482 450.276C939.624 433.448 1024.87 369.377 1159.79 248.203C1237.04 178.832 1344.52 70.0858 1472.64 -77.2693" stroke="#98A2AE" stroke-width="2" stroke-miterlimit="10"/>
<path d="M-51.6729 547.696C53.5543 400.084 172.671 371.159 216.885 364.654C303.972 351.87 377.656 358.011 521.219 385.981C692.543 419.341 715.221 451.212 804.066 442.812C935.335 430.387 1025.26 363.351 1166.99 243.621C1246.56 176.403 1356.86 71.1324 1481.76 -74.6587" stroke="#98A2AE" stroke-width="2" stroke-miterlimit="10"/>
<path d="M-51.2344 576.198C48.0016 416.169 167.166 377.864 210.127 367.726C298.455 346.886 376.214 355.847 524.371 381.154C697.547 410.723 708.807 440.229 795.642 435.356C930.951 427.765 1025.63 357.237 1174.18 239.072C1256.06 173.935 1369.17 72.1988 1490.88 -72.0166" stroke="#98A2AE" stroke-width="2" stroke-miterlimit="10"/>
<path d="M-50.7969 604.705C42.4518 432.255 161.285 384.578 203.373 370.795C292.431 341.617 374.8 353.777 527.53 376.324C702.609 402.169 702.242 429.333 787.225 427.895C926.44 425.525 1025.96 350.957 1181.37 234.506C1265.58 171.411 1381.5 73.2453 1500 -69.3943" stroke="#98A2AE" stroke-width="2" stroke-miterlimit="10"/>
</g>
</svg>
