<svg width="807" height="366" viewBox="0 0 807 366" fill="none" xmlns="http://www.w3.org/2000/svg">
<line x1="136.5" y1="320" x2="136.5" y2="17" stroke="#F2F3F5"/>
<line x1="401.5" y1="320" x2="401.5" y2="17" stroke="#F2F3F5"/>
<line x1="667.5" y1="320" x2="667.5" y2="17" stroke="#F2F3F5"/>
<line x1="272.5" y1="320" x2="272.5" y2="17" stroke="#F2F3F5"/>
<line x1="530.5" y1="320" x2="530.5" y2="17" stroke="#F2F3F5"/>
<line x1="805.5" y1="320" x2="805.5" y2="17" stroke="#F2F3F5"/>
<line x1="0.5" y1="320" x2="0.499991" y2="17" stroke="#F2F3F5"/>
<path d="M1 1H806" stroke="#F2F3F5" stroke-linecap="round"/>
<g clip-path="url(#clip0_66_5361)">
<path opacity="0.1" d="M85.9288 250.639C40.0777 250.639 10.205 296.88 1 320H806V17C729.929 17 714.298 35.6181 687.204 51.6807C660.11 67.7434 590.291 111.551 546.003 113.376C501.715 115.201 473.579 165.579 395.424 151.342C317.269 137.105 296.427 193.689 234.424 229.465C172.421 265.241 143.243 250.639 85.9288 250.639Z" fill="#E31E24"/>
<path d="M1 322C10.205 298.88 40.0777 252.639 85.9288 252.639C143.243 252.639 172.421 267.241 234.424 231.465C296.427 195.689 317.269 139.105 395.424 153.342C473.579 167.579 501.715 117.201 546.003 115.376C590.291 113.551 660.11 69.7434 687.204 53.6807C714.298 37.6181 729.929 19 806 19" stroke="#E31E24" stroke-width="5" stroke-linecap="round"/>
</g>
<path d="M1 336H806" stroke="#F2F3F5" stroke-linecap="round"/>
<path d="M1.97242 364V362.782L5.86442 359.086C6.19109 358.778 6.43376 358.507 6.59242 358.274C6.75109 358.041 6.85376 357.826 6.90042 357.63C6.95642 357.425 6.98442 357.233 6.98442 357.056C6.98442 356.608 6.83042 356.263 6.52242 356.02C6.21442 355.768 5.76176 355.642 5.16442 355.642C4.68842 355.642 4.25442 355.726 3.86242 355.894C3.47976 356.062 3.14842 356.319 2.86842 356.664L1.59442 355.684C1.97709 355.171 2.49042 354.774 3.13442 354.494C3.78776 354.205 4.51576 354.06 5.31842 354.06C6.02776 354.06 6.64376 354.177 7.16642 354.41C7.69842 354.634 8.10442 354.956 8.38442 355.376C8.67376 355.796 8.81842 356.295 8.81842 356.874C8.81842 357.191 8.77642 357.509 8.69242 357.826C8.60842 358.134 8.44976 358.461 8.21642 358.806C7.98309 359.151 7.64242 359.539 7.19442 359.968L3.84842 363.146L3.47042 362.46H9.19642V364H1.97242ZM14.3349 364.14C13.5602 364.14 12.8602 363.944 12.2349 363.552C11.6189 363.16 11.1335 362.591 10.7789 361.844C10.4242 361.088 10.2469 360.173 10.2469 359.1C10.2469 358.027 10.4242 357.117 10.7789 356.37C11.1335 355.614 11.6189 355.04 12.2349 354.648C12.8602 354.256 13.5602 354.06 14.3349 354.06C15.1189 354.06 15.8189 354.256 16.4349 354.648C17.0509 355.04 17.5362 355.614 17.8909 356.37C18.2549 357.117 18.4369 358.027 18.4369 359.1C18.4369 360.173 18.2549 361.088 17.8909 361.844C17.5362 362.591 17.0509 363.16 16.4349 363.552C15.8189 363.944 15.1189 364.14 14.3349 364.14ZM14.3349 362.558C14.7922 362.558 15.1889 362.437 15.5249 362.194C15.8609 361.942 16.1222 361.559 16.3089 361.046C16.5049 360.533 16.6029 359.884 16.6029 359.1C16.6029 358.307 16.5049 357.658 16.3089 357.154C16.1222 356.641 15.8609 356.263 15.5249 356.02C15.1889 355.768 14.7922 355.642 14.3349 355.642C13.8962 355.642 13.5042 355.768 13.1589 356.02C12.8229 356.263 12.5569 356.641 12.3609 357.154C12.1742 357.658 12.0809 358.307 12.0809 359.1C12.0809 359.884 12.1742 360.533 12.3609 361.046C12.5569 361.559 12.8229 361.942 13.1589 362.194C13.5042 362.437 13.8962 362.558 14.3349 362.558ZM19.5271 364V362.782L23.4191 359.086C23.7458 358.778 23.9884 358.507 24.1471 358.274C24.3058 358.041 24.4084 357.826 24.4551 357.63C24.5111 357.425 24.5391 357.233 24.5391 357.056C24.5391 356.608 24.3851 356.263 24.0771 356.02C23.7691 355.768 23.3164 355.642 22.7191 355.642C22.2431 355.642 21.8091 355.726 21.4171 355.894C21.0344 356.062 20.7031 356.319 20.4231 356.664L19.1491 355.684C19.5318 355.171 20.0451 354.774 20.6891 354.494C21.3424 354.205 22.0704 354.06 22.8731 354.06C23.5824 354.06 24.1984 354.177 24.7211 354.41C25.2531 354.634 25.6591 354.956 25.9391 355.376C26.2284 355.796 26.3731 356.295 26.3731 356.874C26.3731 357.191 26.3311 357.509 26.2471 357.826C26.1631 358.134 26.0044 358.461 25.7711 358.806C25.5378 359.151 25.1971 359.539 24.7491 359.968L21.4031 363.146L21.0251 362.46H26.7511V364H19.5271ZM29.3695 364V354.9L30.1675 355.726H27.2975V354.2H31.1895V364H29.3695Z" fill="#131419"/>
<path d="M256.897 364V362.782L260.789 359.086C261.116 358.778 261.359 358.507 261.517 358.274C261.676 358.041 261.779 357.826 261.825 357.63C261.881 357.425 261.909 357.233 261.909 357.056C261.909 356.608 261.755 356.263 261.447 356.02C261.139 355.768 260.687 355.642 260.089 355.642C259.613 355.642 259.179 355.726 258.787 355.894C258.405 356.062 258.073 356.319 257.793 356.664L256.519 355.684C256.902 355.171 257.415 354.774 258.059 354.494C258.713 354.205 259.441 354.06 260.243 354.06C260.953 354.06 261.569 354.177 262.091 354.41C262.623 354.634 263.029 354.956 263.309 355.376C263.599 355.796 263.743 356.295 263.743 356.874C263.743 357.191 263.701 357.509 263.617 357.826C263.533 358.134 263.375 358.461 263.141 358.806C262.908 359.151 262.567 359.539 262.119 359.968L258.773 363.146L258.395 362.46H264.121V364H256.897ZM269.26 364.14C268.485 364.14 267.785 363.944 267.16 363.552C266.544 363.16 266.059 362.591 265.704 361.844C265.349 361.088 265.172 360.173 265.172 359.1C265.172 358.027 265.349 357.117 265.704 356.37C266.059 355.614 266.544 355.04 267.16 354.648C267.785 354.256 268.485 354.06 269.26 354.06C270.044 354.06 270.744 354.256 271.36 354.648C271.976 355.04 272.461 355.614 272.816 356.37C273.18 357.117 273.362 358.027 273.362 359.1C273.362 360.173 273.18 361.088 272.816 361.844C272.461 362.591 271.976 363.16 271.36 363.552C270.744 363.944 270.044 364.14 269.26 364.14ZM269.26 362.558C269.717 362.558 270.114 362.437 270.45 362.194C270.786 361.942 271.047 361.559 271.234 361.046C271.43 360.533 271.528 359.884 271.528 359.1C271.528 358.307 271.43 357.658 271.234 357.154C271.047 356.641 270.786 356.263 270.45 356.02C270.114 355.768 269.717 355.642 269.26 355.642C268.821 355.642 268.429 355.768 268.084 356.02C267.748 356.263 267.482 356.641 267.286 357.154C267.099 357.658 267.006 358.307 267.006 359.1C267.006 359.884 267.099 360.533 267.286 361.046C267.482 361.559 267.748 361.942 268.084 362.194C268.429 362.437 268.821 362.558 269.26 362.558ZM274.452 364V362.782L278.344 359.086C278.671 358.778 278.913 358.507 279.072 358.274C279.231 358.041 279.333 357.826 279.38 357.63C279.436 357.425 279.464 357.233 279.464 357.056C279.464 356.608 279.31 356.263 279.002 356.02C278.694 355.768 278.241 355.642 277.644 355.642C277.168 355.642 276.734 355.726 276.342 355.894C275.959 356.062 275.628 356.319 275.348 356.664L274.074 355.684C274.457 355.171 274.97 354.774 275.614 354.494C276.267 354.205 276.995 354.06 277.798 354.06C278.507 354.06 279.123 354.177 279.646 354.41C280.178 354.634 280.584 354.956 280.864 355.376C281.153 355.796 281.298 356.295 281.298 356.874C281.298 357.191 281.256 357.509 281.172 357.826C281.088 358.134 280.929 358.461 280.696 358.806C280.463 359.151 280.122 359.539 279.674 359.968L276.328 363.146L275.95 362.46H281.676V364H274.452ZM282.601 364V362.782L286.493 359.086C286.819 358.778 287.062 358.507 287.221 358.274C287.379 358.041 287.482 357.826 287.529 357.63C287.585 357.425 287.613 357.233 287.613 357.056C287.613 356.608 287.459 356.263 287.151 356.02C286.843 355.768 286.39 355.642 285.793 355.642C285.317 355.642 284.883 355.726 284.491 355.894C284.108 356.062 283.777 356.319 283.497 356.664L282.223 355.684C282.605 355.171 283.119 354.774 283.763 354.494C284.416 354.205 285.144 354.06 285.947 354.06C286.656 354.06 287.272 354.177 287.795 354.41C288.327 354.634 288.733 354.956 289.013 355.376C289.302 355.796 289.447 356.295 289.447 356.874C289.447 357.191 289.405 357.509 289.321 357.826C289.237 358.134 289.078 358.461 288.845 358.806C288.611 359.151 288.271 359.539 287.823 359.968L284.477 363.146L284.099 362.46H289.825V364H282.601Z" fill="#131419"/>
<path d="M514.231 364V362.782L518.123 359.086C518.449 358.778 518.692 358.507 518.851 358.274C519.009 358.041 519.112 357.826 519.159 357.63C519.215 357.425 519.243 357.233 519.243 357.056C519.243 356.608 519.089 356.263 518.781 356.02C518.473 355.768 518.02 355.642 517.423 355.642C516.947 355.642 516.513 355.726 516.121 355.894C515.738 356.062 515.407 356.319 515.127 356.664L513.853 355.684C514.235 355.171 514.749 354.774 515.393 354.494C516.046 354.205 516.774 354.06 517.577 354.06C518.286 354.06 518.902 354.177 519.425 354.41C519.957 354.634 520.363 354.956 520.643 355.376C520.932 355.796 521.077 356.295 521.077 356.874C521.077 357.191 521.035 357.509 520.951 357.826C520.867 358.134 520.708 358.461 520.475 358.806C520.241 359.151 519.901 359.539 519.453 359.968L516.107 363.146L515.729 362.46H521.455V364H514.231ZM526.593 364.14C525.818 364.14 525.118 363.944 524.493 363.552C523.877 363.16 523.392 362.591 523.037 361.844C522.682 361.088 522.505 360.173 522.505 359.1C522.505 358.027 522.682 357.117 523.037 356.37C523.392 355.614 523.877 355.04 524.493 354.648C525.118 354.256 525.818 354.06 526.593 354.06C527.377 354.06 528.077 354.256 528.693 354.648C529.309 355.04 529.794 355.614 530.149 356.37C530.513 357.117 530.695 358.027 530.695 359.1C530.695 360.173 530.513 361.088 530.149 361.844C529.794 362.591 529.309 363.16 528.693 363.552C528.077 363.944 527.377 364.14 526.593 364.14ZM526.593 362.558C527.05 362.558 527.447 362.437 527.783 362.194C528.119 361.942 528.38 361.559 528.567 361.046C528.763 360.533 528.861 359.884 528.861 359.1C528.861 358.307 528.763 357.658 528.567 357.154C528.38 356.641 528.119 356.263 527.783 356.02C527.447 355.768 527.05 355.642 526.593 355.642C526.154 355.642 525.762 355.768 525.417 356.02C525.081 356.263 524.815 356.641 524.619 357.154C524.432 357.658 524.339 358.307 524.339 359.1C524.339 359.884 524.432 360.533 524.619 361.046C524.815 361.559 525.081 361.942 525.417 362.194C525.762 362.437 526.154 362.558 526.593 362.558ZM531.785 364V362.782L535.677 359.086C536.004 358.778 536.247 358.507 536.405 358.274C536.564 358.041 536.667 357.826 536.713 357.63C536.769 357.425 536.797 357.233 536.797 357.056C536.797 356.608 536.643 356.263 536.335 356.02C536.027 355.768 535.575 355.642 534.977 355.642C534.501 355.642 534.067 355.726 533.675 355.894C533.293 356.062 532.961 356.319 532.681 356.664L531.407 355.684C531.79 355.171 532.303 354.774 532.947 354.494C533.601 354.205 534.329 354.06 535.131 354.06C535.841 354.06 536.457 354.177 536.979 354.41C537.511 354.634 537.917 354.956 538.197 355.376C538.487 355.796 538.631 356.295 538.631 356.874C538.631 357.191 538.589 357.509 538.505 357.826C538.421 358.134 538.263 358.461 538.029 358.806C537.796 359.151 537.455 359.539 537.007 359.968L533.661 363.146L533.283 362.46H539.009V364H531.785ZM543.14 364.14C542.449 364.14 541.773 364.042 541.11 363.846C540.457 363.641 539.906 363.361 539.458 363.006L540.242 361.592C540.597 361.881 541.026 362.115 541.53 362.292C542.034 362.469 542.561 362.558 543.112 362.558C543.765 362.558 544.274 362.427 544.638 362.166C545.002 361.895 545.184 361.531 545.184 361.074C545.184 360.626 545.016 360.271 544.68 360.01C544.344 359.749 543.803 359.618 543.056 359.618H542.16V358.372L544.96 355.04L545.198 355.726H539.934V354.2H546.612V355.418L543.812 358.75L542.86 358.19H543.406C544.61 358.19 545.511 358.461 546.108 359.002C546.715 359.534 547.018 360.22 547.018 361.06C547.018 361.611 546.878 362.119 546.598 362.586C546.318 363.053 545.889 363.431 545.31 363.72C544.741 364 544.017 364.14 543.14 364.14Z" fill="#131419"/>
<path d="M771.49 364V362.782L775.382 359.086C775.709 358.778 775.951 358.507 776.11 358.274C776.269 358.041 776.371 357.826 776.418 357.63C776.474 357.425 776.502 357.233 776.502 357.056C776.502 356.608 776.348 356.263 776.04 356.02C775.732 355.768 775.279 355.642 774.682 355.642C774.206 355.642 773.772 355.726 773.38 355.894C772.997 356.062 772.666 356.319 772.386 356.664L771.112 355.684C771.495 355.171 772.008 354.774 772.652 354.494C773.305 354.205 774.033 354.06 774.836 354.06C775.545 354.06 776.161 354.177 776.684 354.41C777.216 354.634 777.622 354.956 777.902 355.376C778.191 355.796 778.336 356.295 778.336 356.874C778.336 357.191 778.294 357.509 778.21 357.826C778.126 358.134 777.967 358.461 777.734 358.806C777.501 359.151 777.16 359.539 776.712 359.968L773.366 363.146L772.988 362.46H778.714V364H771.49ZM783.852 364.14C783.078 364.14 782.378 363.944 781.752 363.552C781.136 363.16 780.651 362.591 780.296 361.844C779.942 361.088 779.764 360.173 779.764 359.1C779.764 358.027 779.942 357.117 780.296 356.37C780.651 355.614 781.136 355.04 781.752 354.648C782.378 354.256 783.078 354.06 783.852 354.06C784.636 354.06 785.336 354.256 785.952 354.648C786.568 355.04 787.054 355.614 787.408 356.37C787.772 357.117 787.954 358.027 787.954 359.1C787.954 360.173 787.772 361.088 787.408 361.844C787.054 362.591 786.568 363.16 785.952 363.552C785.336 363.944 784.636 364.14 783.852 364.14ZM783.852 362.558C784.31 362.558 784.706 362.437 785.042 362.194C785.378 361.942 785.64 361.559 785.826 361.046C786.022 360.533 786.12 359.884 786.12 359.1C786.12 358.307 786.022 357.658 785.826 357.154C785.64 356.641 785.378 356.263 785.042 356.02C784.706 355.768 784.31 355.642 783.852 355.642C783.414 355.642 783.022 355.768 782.676 356.02C782.34 356.263 782.074 356.641 781.878 357.154C781.692 357.658 781.598 358.307 781.598 359.1C781.598 359.884 781.692 360.533 781.878 361.046C782.074 361.559 782.34 361.942 782.676 362.194C783.022 362.437 783.414 362.558 783.852 362.558ZM789.045 364V362.782L792.937 359.086C793.263 358.778 793.506 358.507 793.665 358.274C793.823 358.041 793.926 357.826 793.973 357.63C794.029 357.425 794.057 357.233 794.057 357.056C794.057 356.608 793.903 356.263 793.595 356.02C793.287 355.768 792.834 355.642 792.237 355.642C791.761 355.642 791.327 355.726 790.935 355.894C790.552 356.062 790.221 356.319 789.941 356.664L788.667 355.684C789.049 355.171 789.563 354.774 790.207 354.494C790.86 354.205 791.588 354.06 792.391 354.06C793.1 354.06 793.716 354.177 794.239 354.41C794.771 354.634 795.177 354.956 795.457 355.376C795.746 355.796 795.891 356.295 795.891 356.874C795.891 357.191 795.849 357.509 795.765 357.826C795.681 358.134 795.522 358.461 795.289 358.806C795.055 359.151 794.715 359.539 794.267 359.968L790.921 363.146L790.543 362.46H796.269V364H789.045ZM796.974 361.774V360.514L801.804 354.2H803.75L798.99 360.514L798.08 360.234H805.85V361.774H796.974ZM802.35 364V361.774L802.406 360.234V358.26H804.114V364H802.35Z" fill="#131419"/>
<rect x="503" y="60" width="56" height="36" rx="8" fill="#131419"/>
<path d="M526.26 73.0469V73.7578L522.138 83H520.805L524.92 74.0859H519.533V73.0469H526.26ZM529.302 78.2627L528.29 78.0029L528.789 73.0469H533.896V74.2158H529.862L529.562 76.9229C529.744 76.818 529.974 76.7201 530.252 76.6289C530.535 76.5378 530.858 76.4922 531.223 76.4922C531.683 76.4922 532.095 76.5719 532.46 76.7314C532.825 76.8864 533.134 77.1097 533.39 77.4014C533.649 77.693 533.848 78.0439 533.984 78.4541C534.121 78.8643 534.189 79.3223 534.189 79.8281C534.189 80.3066 534.123 80.7464 533.991 81.1475C533.864 81.5485 533.67 81.8994 533.41 82.2002C533.15 82.4964 532.822 82.7266 532.426 82.8906C532.034 83.0547 531.571 83.1367 531.038 83.1367C530.637 83.1367 530.257 83.082 529.896 82.9727C529.541 82.8587 529.222 82.6878 528.939 82.46C528.661 82.2275 528.434 81.9404 528.256 81.5986C528.083 81.2523 527.973 80.8467 527.928 80.3818H529.131C529.186 80.7555 529.295 81.07 529.459 81.3252C529.623 81.5804 529.837 81.7741 530.102 81.9062C530.37 82.0339 530.683 82.0977 531.038 82.0977C531.339 82.0977 531.605 82.0452 531.838 81.9404C532.07 81.8356 532.266 81.6852 532.426 81.4893C532.585 81.2933 532.706 81.0563 532.788 80.7783C532.875 80.5003 532.918 80.1882 532.918 79.8418C532.918 79.5273 532.875 79.2357 532.788 78.9668C532.701 78.6979 532.572 78.4632 532.398 78.2627C532.23 78.0622 532.022 77.9072 531.776 77.7979C531.53 77.6839 531.248 77.627 530.929 77.627C530.505 77.627 530.184 77.6839 529.965 77.7979C529.751 77.9118 529.53 78.0667 529.302 78.2627ZM540.431 73.0332H540.54V74.1064H540.431C539.761 74.1064 539.2 74.2158 538.749 74.4346C538.298 74.6488 537.94 74.9382 537.676 75.3027C537.411 75.6628 537.22 76.0684 537.102 76.5195C536.988 76.9707 536.931 77.4287 536.931 77.8936V79.3564C536.931 79.7985 536.983 80.1904 537.088 80.5322C537.193 80.8695 537.336 81.1543 537.519 81.3867C537.701 81.6191 537.906 81.7946 538.134 81.9131C538.366 82.0316 538.608 82.0908 538.858 82.0908C539.15 82.0908 539.41 82.0361 539.638 81.9268C539.866 81.8128 540.057 81.6556 540.212 81.4551C540.371 81.25 540.492 81.0085 540.574 80.7305C540.656 80.4525 540.697 80.1471 540.697 79.8145C540.697 79.5182 540.661 79.2334 540.588 78.96C540.515 78.682 540.403 78.4359 540.253 78.2217C540.103 78.0029 539.913 77.832 539.686 77.709C539.462 77.5814 539.196 77.5176 538.886 77.5176C538.535 77.5176 538.207 77.6042 537.901 77.7773C537.601 77.946 537.352 78.1693 537.156 78.4473C536.965 78.7207 536.855 79.0192 536.828 79.3428L536.158 79.3359C536.222 78.8255 536.34 78.3903 536.514 78.0303C536.691 77.6657 536.91 77.3695 537.17 77.1416C537.434 76.9092 537.728 76.7406 538.052 76.6357C538.38 76.5264 538.726 76.4717 539.091 76.4717C539.588 76.4717 540.016 76.5651 540.376 76.752C540.736 76.9388 541.032 77.1895 541.265 77.5039C541.497 77.8138 541.668 78.1647 541.777 78.5566C541.891 78.944 541.948 79.3428 541.948 79.7529C541.948 80.2223 541.882 80.6621 541.75 81.0723C541.618 81.4824 541.42 81.8424 541.155 82.1523C540.896 82.4622 540.574 82.7038 540.191 82.877C539.809 83.0501 539.364 83.1367 538.858 83.1367C538.321 83.1367 537.851 83.0273 537.45 82.8086C537.049 82.5853 536.716 82.2891 536.452 81.9199C536.188 81.5508 535.99 81.1406 535.857 80.6895C535.725 80.2383 535.659 79.7803 535.659 79.3154V78.7207C535.659 78.0189 535.73 77.3307 535.871 76.6562C536.012 75.9818 536.256 75.3711 536.603 74.8242C536.953 74.2773 537.439 73.8421 538.059 73.5186C538.678 73.195 539.469 73.0332 540.431 73.0332Z" fill="white"/>
<circle cx="531" cy="115" r="11" fill="#E31E24"/>
<g filter="url(#filter0_d_66_5361)">
<circle cx="531" cy="115" r="5" fill="#E31E24"/>
<circle cx="531" cy="115" r="4" stroke="white" stroke-width="2"/>
</g>
<defs>
<filter id="filter0_d_66_5361" x="520" y="110" width="22" height="22" filterUnits="userSpaceOnUse" color-interpolation-filters="sRGB">
<feFlood flood-opacity="0" result="BackgroundImageFix"/>
<feColorMatrix in="SourceAlpha" type="matrix" values="0 0 0 0 0 0 0 0 0 0 0 0 0 0 0 0 0 0 127 0" result="hardAlpha"/>
<feOffset dy="6"/>
<feGaussianBlur stdDeviation="3"/>
<feComposite in2="hardAlpha" operator="out"/>
<feColorMatrix type="matrix" values="0 0 0 0 0 0 0 0 0 0 0 0 0 0 0 0 0 0 0.1 0"/>
<feBlend mode="normal" in2="BackgroundImageFix" result="effect1_dropShadow_66_5361"/>
<feBlend mode="normal" in="SourceGraphic" in2="effect1_dropShadow_66_5361" result="shape"/>
</filter>
<clipPath id="clip0_66_5361">
<rect x="1" y="17" width="805" height="303" rx="2" fill="white"/>
</clipPath>
</defs>
</svg>
