<svg width="365" height="402" viewBox="0 0 365 402" fill="none" xmlns="http://www.w3.org/2000/svg">
<path d="M1.66 19V16.9L7.06 11.8C7.48667 11.4133 7.8 11.0667 8 10.76C8.2 10.4533 8.33333 10.1733 8.4 9.92C8.48 9.66667 8.52 9.43333 8.52 9.22C8.52 8.66 8.32667 8.23333 7.94 7.94C7.56667 7.63333 7.01333 7.48 6.28 7.48C5.69333 7.48 5.14667 7.59333 4.64 7.82C4.14667 8.04667 3.72667 8.4 3.38 8.88L1.02 7.36C1.55333 6.56 2.3 5.92667 3.26 5.46C4.22 4.99333 5.32667 4.76 6.58 4.76C7.62 4.76 8.52667 4.93333 9.3 5.28C10.0867 5.61333 10.6933 6.08667 11.12 6.7C11.56 7.31333 11.78 8.04667 11.78 8.9C11.78 9.35333 11.72 9.80667 11.6 10.26C11.4933 10.7 11.2667 11.1667 10.92 11.66C10.5867 12.1533 10.0933 12.7067 9.44 13.32L4.96 17.54L4.34 16.36H12.24V19H1.66ZM19.5769 19.24C18.4302 19.24 17.4035 18.96 16.4969 18.4C15.5902 17.8267 14.8769 17 14.3569 15.92C13.8369 14.84 13.5769 13.5333 13.5769 12C13.5769 10.4667 13.8369 9.16 14.3569 8.08C14.8769 7 15.5902 6.18 16.4969 5.62C17.4035 5.04667 18.4302 4.76 19.5769 4.76C20.7369 4.76 21.7635 5.04667 22.6569 5.62C23.5635 6.18 24.2769 7 24.7969 8.08C25.3169 9.16 25.5769 10.4667 25.5769 12C25.5769 13.5333 25.3169 14.84 24.7969 15.92C24.2769 17 23.5635 17.8267 22.6569 18.4C21.7635 18.96 20.7369 19.24 19.5769 19.24ZM19.5769 16.5C20.1235 16.5 20.5969 16.3467 20.9969 16.04C21.4102 15.7333 21.7302 15.2467 21.9569 14.58C22.1969 13.9133 22.3169 13.0533 22.3169 12C22.3169 10.9467 22.1969 10.0867 21.9569 9.42C21.7302 8.75333 21.4102 8.26667 20.9969 7.96C20.5969 7.65333 20.1235 7.5 19.5769 7.5C19.0435 7.5 18.5702 7.65333 18.1569 7.96C17.7569 8.26667 17.4369 8.75333 17.1969 9.42C16.9702 10.0867 16.8569 10.9467 16.8569 12C16.8569 13.0533 16.9702 13.9133 17.1969 14.58C17.4369 15.2467 17.7569 15.7333 18.1569 16.04C18.5702 16.3467 19.0435 16.5 19.5769 16.5ZM33.5352 19V8.24H36.7952L40.8552 15.6H39.5552L43.8952 8.24H46.8152L46.8552 19H44.0352V11.44L44.5152 11.76L40.8152 17.96H39.4952L35.7752 11.54L36.3552 11.4V19H33.5352ZM48.4838 18.98L48.6438 16.42C48.7238 16.4333 48.8038 16.4467 48.8838 16.46C48.9638 16.46 49.0371 16.46 49.1038 16.46C49.4771 16.46 49.7704 16.3533 49.9838 16.14C50.1971 15.9267 50.3571 15.64 50.4638 15.28C50.5704 14.9067 50.6438 14.4867 50.6838 14.02C50.7371 13.5533 50.7771 13.0667 50.8038 12.56L50.9638 8.24H60.1638V19H57.0438V10.04L57.7438 10.8H53.0238L53.6838 10L53.5438 12.7C53.5038 13.66 53.4238 14.54 53.3038 15.34C53.1971 16.14 53.0171 16.8333 52.7638 17.42C52.5104 17.9933 52.1704 18.44 51.7438 18.76C51.3171 19.0667 50.7704 19.22 50.1038 19.22C49.8638 19.22 49.6104 19.2 49.3438 19.16C49.0771 19.12 48.7904 19.06 48.4838 18.98ZM63.1641 19V8.24H66.2641V12.44H70.9441V8.24H74.0641V19H70.9441V14.98H66.2641V19H63.1641ZM83.7548 19V5H89.8148C91.6815 5 93.1615 5.39333 94.2548 6.18C95.3482 6.96667 95.8948 8.14667 95.8948 9.72C95.8948 11.28 95.3482 12.4533 94.2548 13.24C93.1615 14.0267 91.6815 14.42 89.8148 14.42H85.5548L87.0148 12.98V19H83.7548ZM87.0148 13.32L85.5548 11.88H89.7948C90.6882 11.88 91.3815 11.7 91.8748 11.34C92.3682 10.9667 92.6148 10.4333 92.6148 9.74C92.6148 9.06 92.3682 8.54 91.8748 8.18C91.3815 7.82 90.6882 7.64 89.7948 7.64H85.5548L87.0148 6.1V13.32ZM81.8148 17.2V15.54H91.3348V17.2H81.8148Z" fill="#131419"/>
<path opacity="0.1" d="M1 39H364" stroke="#98A2AE" stroke-linecap="round"/>
<path d="M1 231.6C1 222.639 1 218.159 2.7439 214.736C4.27787 211.726 6.72556 209.278 9.73615 207.744C13.1587 206 17.6392 206 26.6 206H45.4C54.3608 206 58.8413 206 62.2639 207.744C65.2744 209.278 67.7221 211.726 69.2561 214.736C71 218.159 71 222.639 71 231.6V330.4C71 339.361 71 343.841 69.2561 347.264C67.7221 350.274 65.2744 352.722 62.2639 354.256C58.8413 356 54.3608 356 45.4 356H26.6C17.6392 356 13.1587 356 9.73615 354.256C6.72556 352.722 4.27787 350.274 2.7439 347.264C1 343.841 1 339.361 1 330.4V231.6Z" fill="#98A2AE"/>
<path d="M98.6667 201.6C98.6667 192.639 98.6667 188.159 100.411 184.736C101.945 181.726 104.392 179.278 107.403 177.744C110.825 176 115.306 176 124.267 176H143.067C152.028 176 156.508 176 159.931 177.744C162.941 179.278 165.389 181.726 166.923 184.736C168.667 188.159 168.667 192.639 168.667 201.6V330.4C168.667 339.361 168.667 343.841 166.923 347.264C165.389 350.274 162.941 352.722 159.931 354.256C156.508 356 152.028 356 143.067 356H124.267C115.306 356 110.825 356 107.403 354.256C104.392 352.722 101.945 350.274 100.411 347.264C98.6667 343.841 98.6667 339.361 98.6667 330.4V201.6Z" fill="#98A2AE"/>
<path d="M196.333 156.6C196.333 147.639 196.333 143.159 198.077 139.736C199.611 136.726 202.059 134.278 205.069 132.744C208.492 131 212.972 131 221.933 131H240.733C249.694 131 254.175 131 257.597 132.744C260.608 134.278 263.055 136.726 264.589 139.736C266.333 143.159 266.333 147.639 266.333 156.6V330.4C266.333 339.361 266.333 343.841 264.589 347.264C263.055 350.274 260.608 352.722 257.597 354.256C254.175 356 249.694 356 240.733 356H221.933C212.972 356 208.492 356 205.069 354.256C202.059 352.722 199.611 350.274 198.077 347.264C196.333 343.841 196.333 339.361 196.333 330.4V156.6Z" fill="#E31E24"/>
<path d="M294 80.6C294 71.6392 294 67.1587 295.744 63.7362C297.278 60.7256 299.726 58.2779 302.736 56.7439C306.159 55 310.639 55 319.6 55H338.4C347.361 55 351.841 55 355.264 56.7439C358.274 58.2779 360.722 60.7256 362.256 63.7362C364 67.1587 364 71.6392 364 80.6V330.4C364 339.361 364 343.841 362.256 347.264C360.722 350.274 358.274 352.722 355.264 354.256C351.841 356 347.361 356 338.4 356H319.6C310.639 356 306.159 356 302.736 354.256C299.726 352.722 297.278 350.274 295.744 347.264C294 343.841 294 339.361 294 330.4V80.6Z" fill="#98A2AE"/>
<path opacity="0.1" d="M1 372H364" stroke="#98A2AE" stroke-linecap="round"/>
<path d="M20.9724 400V398.782L24.8644 395.086C25.1911 394.778 25.4338 394.507 25.5924 394.274C25.7511 394.041 25.8538 393.826 25.9004 393.63C25.9564 393.425 25.9844 393.233 25.9844 393.056C25.9844 392.608 25.8304 392.263 25.5224 392.02C25.2144 391.768 24.7618 391.642 24.1644 391.642C23.6884 391.642 23.2544 391.726 22.8624 391.894C22.4798 392.062 22.1484 392.319 21.8684 392.664L20.5944 391.684C20.9771 391.171 21.4904 390.774 22.1344 390.494C22.7878 390.205 23.5158 390.06 24.3184 390.06C25.0278 390.06 25.6438 390.177 26.1664 390.41C26.6984 390.634 27.1044 390.956 27.3844 391.376C27.6738 391.796 27.8184 392.295 27.8184 392.874C27.8184 393.191 27.7764 393.509 27.6924 393.826C27.6084 394.134 27.4498 394.461 27.2164 394.806C26.9831 395.151 26.6424 395.539 26.1944 395.968L22.8484 399.146L22.4704 398.46H28.1964V400H20.9724ZM33.3349 400.14C32.5602 400.14 31.8602 399.944 31.2349 399.552C30.6189 399.16 30.1335 398.591 29.7789 397.844C29.4242 397.088 29.2469 396.173 29.2469 395.1C29.2469 394.027 29.4242 393.117 29.7789 392.37C30.1335 391.614 30.6189 391.04 31.2349 390.648C31.8602 390.256 32.5602 390.06 33.3349 390.06C34.1189 390.06 34.8189 390.256 35.4349 390.648C36.0509 391.04 36.5362 391.614 36.8909 392.37C37.2549 393.117 37.4369 394.027 37.4369 395.1C37.4369 396.173 37.2549 397.088 36.8909 397.844C36.5362 398.591 36.0509 399.16 35.4349 399.552C34.8189 399.944 34.1189 400.14 33.3349 400.14ZM33.3349 398.558C33.7922 398.558 34.1889 398.437 34.5249 398.194C34.8609 397.942 35.1222 397.559 35.3089 397.046C35.5049 396.533 35.6029 395.884 35.6029 395.1C35.6029 394.307 35.5049 393.658 35.3089 393.154C35.1222 392.641 34.8609 392.263 34.5249 392.02C34.1889 391.768 33.7922 391.642 33.3349 391.642C32.8962 391.642 32.5042 391.768 32.1589 392.02C31.8229 392.263 31.5569 392.641 31.3609 393.154C31.1742 393.658 31.0809 394.307 31.0809 395.1C31.0809 395.884 31.1742 396.533 31.3609 397.046C31.5569 397.559 31.8229 397.942 32.1589 398.194C32.5042 398.437 32.8962 398.558 33.3349 398.558ZM38.5271 400V398.782L42.4191 395.086C42.7458 394.778 42.9884 394.507 43.1471 394.274C43.3058 394.041 43.4084 393.826 43.4551 393.63C43.5111 393.425 43.5391 393.233 43.5391 393.056C43.5391 392.608 43.3851 392.263 43.0771 392.02C42.7691 391.768 42.3164 391.642 41.7191 391.642C41.2431 391.642 40.8091 391.726 40.4171 391.894C40.0344 392.062 39.7031 392.319 39.4231 392.664L38.1491 391.684C38.5318 391.171 39.0451 390.774 39.6891 390.494C40.3424 390.205 41.0704 390.06 41.8731 390.06C42.5824 390.06 43.1984 390.177 43.7211 390.41C44.2531 390.634 44.6591 390.956 44.9391 391.376C45.2284 391.796 45.3731 392.295 45.3731 392.874C45.3731 393.191 45.3311 393.509 45.2471 393.826C45.1631 394.134 45.0044 394.461 44.7711 394.806C44.5378 395.151 44.1971 395.539 43.7491 395.968L40.4031 399.146L40.0251 398.46H45.7511V400H38.5271ZM48.3695 400V390.9L49.1675 391.726H46.2975V390.2H50.1895V400H48.3695Z" fill="#131419"/>
<path d="M117.231 400V398.782L121.123 395.086C121.45 394.778 121.692 394.507 121.851 394.274C122.01 394.041 122.112 393.826 122.159 393.63C122.215 393.425 122.243 393.233 122.243 393.056C122.243 392.608 122.089 392.263 121.781 392.02C121.473 391.768 121.02 391.642 120.423 391.642C119.947 391.642 119.513 391.726 119.121 391.894C118.738 392.062 118.407 392.319 118.127 392.664L116.853 391.684C117.236 391.171 117.749 390.774 118.393 390.494C119.046 390.205 119.774 390.06 120.577 390.06C121.286 390.06 121.902 390.177 122.425 390.41C122.957 390.634 123.363 390.956 123.643 391.376C123.932 391.796 124.077 392.295 124.077 392.874C124.077 393.191 124.035 393.509 123.951 393.826C123.867 394.134 123.708 394.461 123.475 394.806C123.242 395.151 122.901 395.539 122.453 395.968L119.107 399.146L118.729 398.46H124.455V400H117.231ZM129.593 400.14C128.819 400.14 128.119 399.944 127.493 399.552C126.877 399.16 126.392 398.591 126.037 397.844C125.683 397.088 125.505 396.173 125.505 395.1C125.505 394.027 125.683 393.117 126.037 392.37C126.392 391.614 126.877 391.04 127.493 390.648C128.119 390.256 128.819 390.06 129.593 390.06C130.377 390.06 131.077 390.256 131.693 390.648C132.309 391.04 132.795 391.614 133.149 392.37C133.513 393.117 133.695 394.027 133.695 395.1C133.695 396.173 133.513 397.088 133.149 397.844C132.795 398.591 132.309 399.16 131.693 399.552C131.077 399.944 130.377 400.14 129.593 400.14ZM129.593 398.558C130.051 398.558 130.447 398.437 130.783 398.194C131.119 397.942 131.381 397.559 131.567 397.046C131.763 396.533 131.861 395.884 131.861 395.1C131.861 394.307 131.763 393.658 131.567 393.154C131.381 392.641 131.119 392.263 130.783 392.02C130.447 391.768 130.051 391.642 129.593 391.642C129.155 391.642 128.763 391.768 128.417 392.02C128.081 392.263 127.815 392.641 127.619 393.154C127.433 393.658 127.339 394.307 127.339 395.1C127.339 395.884 127.433 396.533 127.619 397.046C127.815 397.559 128.081 397.942 128.417 398.194C128.763 398.437 129.155 398.558 129.593 398.558ZM134.786 400V398.782L138.678 395.086C139.004 394.778 139.247 394.507 139.406 394.274C139.564 394.041 139.667 393.826 139.714 393.63C139.77 393.425 139.798 393.233 139.798 393.056C139.798 392.608 139.644 392.263 139.336 392.02C139.028 391.768 138.575 391.642 137.978 391.642C137.502 391.642 137.068 391.726 136.676 391.894C136.293 392.062 135.962 392.319 135.682 392.664L134.408 391.684C134.79 391.171 135.304 390.774 135.948 390.494C136.601 390.205 137.329 390.06 138.132 390.06C138.841 390.06 139.457 390.177 139.98 390.41C140.512 390.634 140.918 390.956 141.198 391.376C141.487 391.796 141.632 392.295 141.632 392.874C141.632 393.191 141.59 393.509 141.506 393.826C141.422 394.134 141.263 394.461 141.03 394.806C140.796 395.151 140.456 395.539 140.008 395.968L136.662 399.146L136.284 398.46H142.01V400H134.786ZM142.934 400V398.782L146.826 395.086C147.153 394.778 147.395 394.507 147.554 394.274C147.713 394.041 147.815 393.826 147.862 393.63C147.918 393.425 147.946 393.233 147.946 393.056C147.946 392.608 147.792 392.263 147.484 392.02C147.176 391.768 146.723 391.642 146.126 391.642C145.65 391.642 145.216 391.726 144.824 391.894C144.441 392.062 144.11 392.319 143.83 392.664L142.556 391.684C142.939 391.171 143.452 390.774 144.096 390.494C144.749 390.205 145.477 390.06 146.28 390.06C146.989 390.06 147.605 390.177 148.128 390.41C148.66 390.634 149.066 390.956 149.346 391.376C149.635 391.796 149.78 392.295 149.78 392.874C149.78 393.191 149.738 393.509 149.654 393.826C149.57 394.134 149.411 394.461 149.178 394.806C148.945 395.151 148.604 395.539 148.156 395.968L144.81 399.146L144.432 398.46H150.158V400H142.934Z" fill="#131419"/>
<path d="M214.897 400V398.782L218.789 395.086C219.116 394.778 219.359 394.507 219.517 394.274C219.676 394.041 219.779 393.826 219.825 393.63C219.881 393.425 219.909 393.233 219.909 393.056C219.909 392.608 219.755 392.263 219.447 392.02C219.139 391.768 218.687 391.642 218.089 391.642C217.613 391.642 217.179 391.726 216.787 391.894C216.405 392.062 216.073 392.319 215.793 392.664L214.519 391.684C214.902 391.171 215.415 390.774 216.059 390.494C216.713 390.205 217.441 390.06 218.243 390.06C218.953 390.06 219.569 390.177 220.091 390.41C220.623 390.634 221.029 390.956 221.309 391.376C221.599 391.796 221.743 392.295 221.743 392.874C221.743 393.191 221.701 393.509 221.617 393.826C221.533 394.134 221.375 394.461 221.141 394.806C220.908 395.151 220.567 395.539 220.119 395.968L216.773 399.146L216.395 398.46H222.121V400H214.897ZM227.26 400.14C226.485 400.14 225.785 399.944 225.16 399.552C224.544 399.16 224.059 398.591 223.704 397.844C223.349 397.088 223.172 396.173 223.172 395.1C223.172 394.027 223.349 393.117 223.704 392.37C224.059 391.614 224.544 391.04 225.16 390.648C225.785 390.256 226.485 390.06 227.26 390.06C228.044 390.06 228.744 390.256 229.36 390.648C229.976 391.04 230.461 391.614 230.816 392.37C231.18 393.117 231.362 394.027 231.362 395.1C231.362 396.173 231.18 397.088 230.816 397.844C230.461 398.591 229.976 399.16 229.36 399.552C228.744 399.944 228.044 400.14 227.26 400.14ZM227.26 398.558C227.717 398.558 228.114 398.437 228.45 398.194C228.786 397.942 229.047 397.559 229.234 397.046C229.43 396.533 229.528 395.884 229.528 395.1C229.528 394.307 229.43 393.658 229.234 393.154C229.047 392.641 228.786 392.263 228.45 392.02C228.114 391.768 227.717 391.642 227.26 391.642C226.821 391.642 226.429 391.768 226.084 392.02C225.748 392.263 225.482 392.641 225.286 393.154C225.099 393.658 225.006 394.307 225.006 395.1C225.006 395.884 225.099 396.533 225.286 397.046C225.482 397.559 225.748 397.942 226.084 398.194C226.429 398.437 226.821 398.558 227.26 398.558ZM232.452 400V398.782L236.344 395.086C236.671 394.778 236.913 394.507 237.072 394.274C237.231 394.041 237.333 393.826 237.38 393.63C237.436 393.425 237.464 393.233 237.464 393.056C237.464 392.608 237.31 392.263 237.002 392.02C236.694 391.768 236.241 391.642 235.644 391.642C235.168 391.642 234.734 391.726 234.342 391.894C233.959 392.062 233.628 392.319 233.348 392.664L232.074 391.684C232.457 391.171 232.97 390.774 233.614 390.494C234.267 390.205 234.995 390.06 235.798 390.06C236.507 390.06 237.123 390.177 237.646 390.41C238.178 390.634 238.584 390.956 238.864 391.376C239.153 391.796 239.298 392.295 239.298 392.874C239.298 393.191 239.256 393.509 239.172 393.826C239.088 394.134 238.929 394.461 238.696 394.806C238.463 395.151 238.122 395.539 237.674 395.968L234.328 399.146L233.95 398.46H239.676V400H232.452ZM243.807 400.14C243.116 400.14 242.439 400.042 241.777 399.846C241.123 399.641 240.573 399.361 240.125 399.006L240.909 397.592C241.263 397.881 241.693 398.115 242.197 398.292C242.701 398.469 243.228 398.558 243.779 398.558C244.432 398.558 244.941 398.427 245.305 398.166C245.669 397.895 245.851 397.531 245.851 397.074C245.851 396.626 245.683 396.271 245.347 396.01C245.011 395.749 244.469 395.618 243.723 395.618H242.827V394.372L245.627 391.04L245.865 391.726H240.601V390.2H247.279V391.418L244.479 394.75L243.527 394.19H244.073C245.277 394.19 246.177 394.461 246.775 395.002C247.381 395.534 247.685 396.22 247.685 397.06C247.685 397.611 247.545 398.119 247.265 398.586C246.985 399.053 246.555 399.431 245.977 399.72C245.407 400 244.684 400.14 243.807 400.14Z" fill="#131419"/>
<path d="M311.99 400V398.782L315.882 395.086C316.209 394.778 316.451 394.507 316.61 394.274C316.769 394.041 316.871 393.826 316.918 393.63C316.974 393.425 317.002 393.233 317.002 393.056C317.002 392.608 316.848 392.263 316.54 392.02C316.232 391.768 315.779 391.642 315.182 391.642C314.706 391.642 314.272 391.726 313.88 391.894C313.497 392.062 313.166 392.319 312.886 392.664L311.612 391.684C311.995 391.171 312.508 390.774 313.152 390.494C313.805 390.205 314.533 390.06 315.336 390.06C316.045 390.06 316.661 390.177 317.184 390.41C317.716 390.634 318.122 390.956 318.402 391.376C318.691 391.796 318.836 392.295 318.836 392.874C318.836 393.191 318.794 393.509 318.71 393.826C318.626 394.134 318.467 394.461 318.234 394.806C318.001 395.151 317.66 395.539 317.212 395.968L313.866 399.146L313.488 398.46H319.214V400H311.99ZM324.352 400.14C323.578 400.14 322.878 399.944 322.252 399.552C321.636 399.16 321.151 398.591 320.796 397.844C320.442 397.088 320.264 396.173 320.264 395.1C320.264 394.027 320.442 393.117 320.796 392.37C321.151 391.614 321.636 391.04 322.252 390.648C322.878 390.256 323.578 390.06 324.352 390.06C325.136 390.06 325.836 390.256 326.452 390.648C327.068 391.04 327.554 391.614 327.908 392.37C328.272 393.117 328.454 394.027 328.454 395.1C328.454 396.173 328.272 397.088 327.908 397.844C327.554 398.591 327.068 399.16 326.452 399.552C325.836 399.944 325.136 400.14 324.352 400.14ZM324.352 398.558C324.81 398.558 325.206 398.437 325.542 398.194C325.878 397.942 326.14 397.559 326.326 397.046C326.522 396.533 326.62 395.884 326.62 395.1C326.62 394.307 326.522 393.658 326.326 393.154C326.14 392.641 325.878 392.263 325.542 392.02C325.206 391.768 324.81 391.642 324.352 391.642C323.914 391.642 323.522 391.768 323.176 392.02C322.84 392.263 322.574 392.641 322.378 393.154C322.192 393.658 322.098 394.307 322.098 395.1C322.098 395.884 322.192 396.533 322.378 397.046C322.574 397.559 322.84 397.942 323.176 398.194C323.522 398.437 323.914 398.558 324.352 398.558ZM329.545 400V398.782L333.437 395.086C333.763 394.778 334.006 394.507 334.165 394.274C334.323 394.041 334.426 393.826 334.473 393.63C334.529 393.425 334.557 393.233 334.557 393.056C334.557 392.608 334.403 392.263 334.095 392.02C333.787 391.768 333.334 391.642 332.737 391.642C332.261 391.642 331.827 391.726 331.435 391.894C331.052 392.062 330.721 392.319 330.441 392.664L329.167 391.684C329.549 391.171 330.063 390.774 330.707 390.494C331.36 390.205 332.088 390.06 332.891 390.06C333.6 390.06 334.216 390.177 334.739 390.41C335.271 390.634 335.677 390.956 335.957 391.376C336.246 391.796 336.391 392.295 336.391 392.874C336.391 393.191 336.349 393.509 336.265 393.826C336.181 394.134 336.022 394.461 335.789 394.806C335.555 395.151 335.215 395.539 334.767 395.968L331.421 399.146L331.043 398.46H336.769V400H329.545ZM337.474 397.774V396.514L342.304 390.2H344.25L339.49 396.514L338.58 396.234H346.35V397.774H337.474ZM342.85 400V397.774L342.906 396.234V394.26H344.614V400H342.85Z" fill="#131419"/>
<rect x="180" y="79" width="102" height="36" rx="8" fill="#131419"/>
<path d="M200.983 91.9922V102H199.719V93.5713L197.169 94.501V93.3594L200.785 91.9922H200.983ZM211.429 98.6504V99.6895H204.237V98.9443L208.694 92.0469H209.727L208.619 94.043L205.673 98.6504H211.429ZM210.041 92.0469V102H208.776V92.0469H210.041ZM222.298 96.2305V97.748C222.298 98.5638 222.225 99.252 222.079 99.8125C221.933 100.373 221.724 100.824 221.45 101.166C221.177 101.508 220.846 101.756 220.459 101.911C220.076 102.062 219.643 102.137 219.16 102.137C218.777 102.137 218.424 102.089 218.101 101.993C217.777 101.897 217.485 101.745 217.226 101.535C216.97 101.321 216.752 101.043 216.569 100.701C216.387 100.359 216.248 99.9447 216.152 99.457C216.057 98.9694 216.009 98.3997 216.009 97.748V96.2305C216.009 95.4147 216.082 94.7311 216.228 94.1797C216.378 93.6283 216.59 93.1862 216.863 92.8535C217.137 92.5163 217.465 92.2747 217.848 92.1289C218.235 91.9831 218.668 91.9102 219.146 91.9102C219.534 91.9102 219.889 91.958 220.213 92.0537C220.541 92.1449 220.833 92.293 221.088 92.498C221.343 92.6986 221.56 92.9674 221.737 93.3047C221.92 93.6374 222.059 94.0452 222.154 94.5283C222.25 95.0114 222.298 95.5788 222.298 96.2305ZM221.026 97.9531V96.0186C221.026 95.5719 220.999 95.18 220.944 94.8428C220.894 94.501 220.819 94.2093 220.719 93.9678C220.618 93.7262 220.491 93.5303 220.336 93.3799C220.186 93.2295 220.01 93.1201 219.81 93.0518C219.614 92.9788 219.393 92.9424 219.146 92.9424C218.846 92.9424 218.579 92.9993 218.347 93.1133C218.114 93.2227 217.918 93.3981 217.759 93.6396C217.604 93.8812 217.485 94.1979 217.403 94.5898C217.321 94.9818 217.28 95.458 217.28 96.0186V97.9531C217.28 98.3997 217.305 98.7939 217.355 99.1357C217.41 99.4775 217.49 99.7738 217.595 100.024C217.7 100.271 217.827 100.473 217.978 100.633C218.128 100.792 218.301 100.911 218.497 100.988C218.698 101.061 218.919 101.098 219.16 101.098C219.47 101.098 219.741 101.038 219.974 100.92C220.206 100.801 220.4 100.617 220.555 100.366C220.714 100.111 220.833 99.7852 220.91 99.3887C220.988 98.9876 221.026 98.5091 221.026 97.9531ZM230.173 96.2305V97.748C230.173 98.5638 230.1 99.252 229.954 99.8125C229.808 100.373 229.599 100.824 229.325 101.166C229.052 101.508 228.721 101.756 228.334 101.911C227.951 102.062 227.518 102.137 227.035 102.137C226.652 102.137 226.299 102.089 225.976 101.993C225.652 101.897 225.36 101.745 225.101 101.535C224.845 101.321 224.627 101.043 224.444 100.701C224.262 100.359 224.123 99.9447 224.027 99.457C223.932 98.9694 223.884 98.3997 223.884 97.748V96.2305C223.884 95.4147 223.957 94.7311 224.103 94.1797C224.253 93.6283 224.465 93.1862 224.738 92.8535C225.012 92.5163 225.34 92.2747 225.723 92.1289C226.11 91.9831 226.543 91.9102 227.021 91.9102C227.409 91.9102 227.764 91.958 228.088 92.0537C228.416 92.1449 228.708 92.293 228.963 92.498C229.218 92.6986 229.435 92.9674 229.612 93.3047C229.795 93.6374 229.934 94.0452 230.029 94.5283C230.125 95.0114 230.173 95.5788 230.173 96.2305ZM228.901 97.9531V96.0186C228.901 95.5719 228.874 95.18 228.819 94.8428C228.769 94.501 228.694 94.2093 228.594 93.9678C228.493 93.7262 228.366 93.5303 228.211 93.3799C228.061 93.2295 227.885 93.1201 227.685 93.0518C227.489 92.9788 227.268 92.9424 227.021 92.9424C226.721 92.9424 226.454 92.9993 226.222 93.1133C225.989 93.2227 225.793 93.3981 225.634 93.6396C225.479 93.8812 225.36 94.1979 225.278 94.5898C225.196 94.9818 225.155 95.458 225.155 96.0186V97.9531C225.155 98.3997 225.18 98.7939 225.23 99.1357C225.285 99.4775 225.365 99.7738 225.47 100.024C225.575 100.271 225.702 100.473 225.853 100.633C226.003 100.792 226.176 100.911 226.372 100.988C226.573 101.061 226.794 101.098 227.035 101.098C227.345 101.098 227.616 101.038 227.849 100.92C228.081 100.801 228.275 100.617 228.43 100.366C228.589 100.111 228.708 99.7852 228.785 99.3887C228.863 98.9876 228.901 98.5091 228.901 97.9531ZM238.048 96.2305V97.748C238.048 98.5638 237.975 99.252 237.829 99.8125C237.683 100.373 237.474 100.824 237.2 101.166C236.927 101.508 236.596 101.756 236.209 101.911C235.826 102.062 235.393 102.137 234.91 102.137C234.527 102.137 234.174 102.089 233.851 101.993C233.527 101.897 233.235 101.745 232.976 101.535C232.72 101.321 232.502 101.043 232.319 100.701C232.137 100.359 231.998 99.9447 231.902 99.457C231.807 98.9694 231.759 98.3997 231.759 97.748V96.2305C231.759 95.4147 231.832 94.7311 231.978 94.1797C232.128 93.6283 232.34 93.1862 232.613 92.8535C232.887 92.5163 233.215 92.2747 233.598 92.1289C233.985 91.9831 234.418 91.9102 234.896 91.9102C235.284 91.9102 235.639 91.958 235.963 92.0537C236.291 92.1449 236.583 92.293 236.838 92.498C237.093 92.6986 237.31 92.9674 237.487 93.3047C237.67 93.6374 237.809 94.0452 237.904 94.5283C238 95.0114 238.048 95.5788 238.048 96.2305ZM236.776 97.9531V96.0186C236.776 95.5719 236.749 95.18 236.694 94.8428C236.644 94.501 236.569 94.2093 236.469 93.9678C236.368 93.7262 236.241 93.5303 236.086 93.3799C235.936 93.2295 235.76 93.1201 235.56 93.0518C235.364 92.9788 235.143 92.9424 234.896 92.9424C234.596 92.9424 234.329 92.9993 234.097 93.1133C233.864 93.2227 233.668 93.3981 233.509 93.6396C233.354 93.8812 233.235 94.1979 233.153 94.5898C233.071 94.9818 233.03 95.458 233.03 96.0186V97.9531C233.03 98.3997 233.055 98.7939 233.105 99.1357C233.16 99.4775 233.24 99.7738 233.345 100.024C233.45 100.271 233.577 100.473 233.728 100.633C233.878 100.792 234.051 100.911 234.247 100.988C234.448 101.061 234.669 101.098 234.91 101.098C235.22 101.098 235.491 101.038 235.724 100.92C235.956 100.801 236.15 100.617 236.305 100.366C236.464 100.111 236.583 99.7852 236.66 99.3887C236.738 98.9876 236.776 98.5091 236.776 97.9531ZM249.396 96.2305V97.748C249.396 98.5638 249.323 99.252 249.177 99.8125C249.031 100.373 248.821 100.824 248.548 101.166C248.274 101.508 247.944 101.756 247.557 101.911C247.174 102.062 246.741 102.137 246.258 102.137C245.875 102.137 245.522 102.089 245.198 101.993C244.875 101.897 244.583 101.745 244.323 101.535C244.068 101.321 243.849 101.043 243.667 100.701C243.485 100.359 243.346 99.9447 243.25 99.457C243.154 98.9694 243.106 98.3997 243.106 97.748V96.2305C243.106 95.4147 243.179 94.7311 243.325 94.1797C243.476 93.6283 243.688 93.1862 243.961 92.8535C244.234 92.5163 244.562 92.2747 244.945 92.1289C245.333 91.9831 245.766 91.9102 246.244 91.9102C246.632 91.9102 246.987 91.958 247.311 92.0537C247.639 92.1449 247.93 92.293 248.186 92.498C248.441 92.6986 248.657 92.9674 248.835 93.3047C249.017 93.6374 249.156 94.0452 249.252 94.5283C249.348 95.0114 249.396 95.5788 249.396 96.2305ZM248.124 97.9531V96.0186C248.124 95.5719 248.097 95.18 248.042 94.8428C247.992 94.501 247.917 94.2093 247.816 93.9678C247.716 93.7262 247.589 93.5303 247.434 93.3799C247.283 93.2295 247.108 93.1201 246.907 93.0518C246.711 92.9788 246.49 92.9424 246.244 92.9424C245.943 92.9424 245.677 92.9993 245.444 93.1133C245.212 93.2227 245.016 93.3981 244.856 93.6396C244.701 93.8812 244.583 94.1979 244.501 94.5898C244.419 94.9818 244.378 95.458 244.378 96.0186V97.9531C244.378 98.3997 244.403 98.7939 244.453 99.1357C244.508 99.4775 244.588 99.7738 244.692 100.024C244.797 100.271 244.925 100.473 245.075 100.633C245.226 100.792 245.399 100.911 245.595 100.988C245.795 101.061 246.016 101.098 246.258 101.098C246.568 101.098 246.839 101.038 247.071 100.92C247.304 100.801 247.497 100.617 247.652 100.366C247.812 100.111 247.93 99.7852 248.008 99.3887C248.085 98.9876 248.124 98.5091 248.124 97.9531ZM257.271 96.2305V97.748C257.271 98.5638 257.198 99.252 257.052 99.8125C256.906 100.373 256.696 100.824 256.423 101.166C256.149 101.508 255.819 101.756 255.432 101.911C255.049 102.062 254.616 102.137 254.133 102.137C253.75 102.137 253.397 102.089 253.073 101.993C252.75 101.897 252.458 101.745 252.198 101.535C251.943 101.321 251.724 101.043 251.542 100.701C251.36 100.359 251.221 99.9447 251.125 99.457C251.029 98.9694 250.981 98.3997 250.981 97.748V96.2305C250.981 95.4147 251.054 94.7311 251.2 94.1797C251.351 93.6283 251.562 93.1862 251.836 92.8535C252.109 92.5163 252.438 92.2747 252.82 92.1289C253.208 91.9831 253.641 91.9102 254.119 91.9102C254.507 91.9102 254.862 91.958 255.186 92.0537C255.514 92.1449 255.805 92.293 256.061 92.498C256.316 92.6986 256.532 92.9674 256.71 93.3047C256.892 93.6374 257.031 94.0452 257.127 94.5283C257.223 95.0114 257.271 95.5788 257.271 96.2305ZM255.999 97.9531V96.0186C255.999 95.5719 255.972 95.18 255.917 94.8428C255.867 94.501 255.792 94.2093 255.691 93.9678C255.591 93.7262 255.464 93.5303 255.309 93.3799C255.158 93.2295 254.983 93.1201 254.782 93.0518C254.586 92.9788 254.365 92.9424 254.119 92.9424C253.818 92.9424 253.552 92.9993 253.319 93.1133C253.087 93.2227 252.891 93.3981 252.731 93.6396C252.576 93.8812 252.458 94.1979 252.376 94.5898C252.294 94.9818 252.253 95.458 252.253 96.0186V97.9531C252.253 98.3997 252.278 98.7939 252.328 99.1357C252.383 99.4775 252.463 99.7738 252.567 100.024C252.672 100.271 252.8 100.473 252.95 100.633C253.101 100.792 253.274 100.911 253.47 100.988C253.67 101.061 253.891 101.098 254.133 101.098C254.443 101.098 254.714 101.038 254.946 100.92C255.179 100.801 255.372 100.617 255.527 100.366C255.687 100.111 255.805 99.7852 255.883 99.3887C255.96 98.9876 255.999 98.5091 255.999 97.9531ZM265.146 96.2305V97.748C265.146 98.5638 265.073 99.252 264.927 99.8125C264.781 100.373 264.571 100.824 264.298 101.166C264.024 101.508 263.694 101.756 263.307 101.911C262.924 102.062 262.491 102.137 262.008 102.137C261.625 102.137 261.272 102.089 260.948 101.993C260.625 101.897 260.333 101.745 260.073 101.535C259.818 101.321 259.599 101.043 259.417 100.701C259.235 100.359 259.096 99.9447 259 99.457C258.904 98.9694 258.856 98.3997 258.856 97.748V96.2305C258.856 95.4147 258.929 94.7311 259.075 94.1797C259.226 93.6283 259.438 93.1862 259.711 92.8535C259.984 92.5163 260.312 92.2747 260.695 92.1289C261.083 91.9831 261.516 91.9102 261.994 91.9102C262.382 91.9102 262.737 91.958 263.061 92.0537C263.389 92.1449 263.68 92.293 263.936 92.498C264.191 92.6986 264.407 92.9674 264.585 93.3047C264.767 93.6374 264.906 94.0452 265.002 94.5283C265.098 95.0114 265.146 95.5788 265.146 96.2305ZM263.874 97.9531V96.0186C263.874 95.5719 263.847 95.18 263.792 94.8428C263.742 94.501 263.667 94.2093 263.566 93.9678C263.466 93.7262 263.339 93.5303 263.184 93.3799C263.033 93.2295 262.858 93.1201 262.657 93.0518C262.461 92.9788 262.24 92.9424 261.994 92.9424C261.693 92.9424 261.427 92.9993 261.194 93.1133C260.962 93.2227 260.766 93.3981 260.606 93.6396C260.451 93.8812 260.333 94.1979 260.251 94.5898C260.169 94.9818 260.128 95.458 260.128 96.0186V97.9531C260.128 98.3997 260.153 98.7939 260.203 99.1357C260.258 99.4775 260.338 99.7738 260.442 100.024C260.547 100.271 260.675 100.473 260.825 100.633C260.976 100.792 261.149 100.911 261.345 100.988C261.545 101.061 261.766 101.098 262.008 101.098C262.318 101.098 262.589 101.038 262.821 100.92C263.054 100.801 263.247 100.617 263.402 100.366C263.562 100.111 263.68 99.7852 263.758 99.3887C263.835 98.9876 263.874 98.5091 263.874 97.9531Z" fill="white"/>
</svg>
