<svg width="65" height="64" viewBox="0 0 65 64" fill="none" xmlns="http://www.w3.org/2000/svg">
<path d="M5.8501 32.0002C5.8501 32.0002 14.3668 28.7944 18.0723 22.3089C21.7773 15.8234 23.6085 0.915405 23.6085 0.915405C23.6085 0.915405 25.4398 15.8234 29.145 22.3089C32.8504 28.7944 41.3672 32.0002 41.3672 32.0002C41.3672 32.0002 32.8504 35.206 29.1452 41.6915C25.44 48.1771 23.6087 63.085 23.6087 63.085C23.6087 63.085 21.7773 48.1771 18.072 41.6915C14.3673 35.206 5.8501 32.0002 5.8501 32.0002Z" fill="#131419"/>
<path d="M13.666 32.0002C13.666 32.0002 22.183 28.7944 25.888 22.3089C29.5932 15.8234 31.4247 0.915405 31.4247 0.915405C31.4247 0.915405 33.2562 15.8234 36.9612 22.3089C40.6664 28.7944 49.1831 32.0002 49.1831 32.0002C49.1831 32.0002 40.6664 35.206 36.9612 41.6915C33.2562 48.1771 31.4247 63.085 31.4247 63.085C31.4247 63.085 29.5932 48.1771 25.888 41.6915C22.183 35.206 13.666 32.0002 13.666 32.0002Z" fill="#E31E24"/>
<path d="M23.6086 32.0002C23.6086 32.0002 32.1254 28.7944 35.8306 22.3089C39.5358 15.8234 41.3671 0.915405 41.3671 0.915405C41.3671 0.915405 43.1986 15.8234 46.9038 22.3089C50.609 28.7944 59.1257 32.0002 59.1257 32.0002C59.1257 32.0002 50.609 35.206 46.9038 41.6915C43.1986 48.1771 41.3671 63.085 41.3671 63.085C41.3671 63.085 39.5358 48.1771 35.8306 41.6915C32.1254 35.206 23.6086 32.0002 23.6086 32.0002Z" fill="#F2F3F5"/>
</svg>
