<svg width="86" height="86" viewBox="0 0 86 86" fill="none" xmlns="http://www.w3.org/2000/svg">
<path d="M7.73999 43.0003C7.73999 43.0003 19.0083 38.6926 23.9109 29.9776C28.8129 21.2627 31.2358 1.2301 31.2358 1.2301C31.2358 1.2301 33.6587 21.2627 38.561 29.9776C43.4635 38.6926 54.7318 43.0003 54.7318 43.0003C54.7318 43.0003 43.4635 47.308 38.5612 56.023C33.659 64.738 31.236 84.7705 31.236 84.7705C31.236 84.7705 28.8129 64.738 23.9106 56.023C19.0089 47.308 7.73999 43.0003 7.73999 43.0003Z" fill="#131419"/>
<path d="M18.0813 43.0003C18.0813 43.0003 29.3499 38.6926 34.2519 29.9776C39.1542 21.2627 41.5774 1.2301 41.5774 1.2301C41.5774 1.2301 44.0006 21.2627 48.9026 29.9776C53.8048 38.6926 65.0731 43.0003 65.0731 43.0003C65.0731 43.0003 53.8048 47.308 48.9026 56.023C44.0006 64.738 41.5774 84.7705 41.5774 84.7705C41.5774 84.7705 39.1542 64.738 34.2519 56.023C29.3499 47.308 18.0813 43.0003 18.0813 43.0003Z" fill="#E31E24"/>
<path d="M31.2361 43.0003C31.2361 43.0003 42.5044 38.6926 47.4067 29.9776C52.309 21.2627 54.7319 1.2301 54.7319 1.2301C54.7319 1.2301 57.1551 21.2627 62.0573 29.9776C66.9596 38.6926 78.2279 43.0003 78.2279 43.0003C78.2279 43.0003 66.9596 47.308 62.0573 56.023C57.1551 64.738 54.7319 84.7705 54.7319 84.7705C54.7319 84.7705 52.309 64.738 47.4067 56.023C42.5044 47.308 31.2361 43.0003 31.2361 43.0003Z" fill="white"/>
</svg>
